<?xml version="1.0" encoding="utf-8"?>
<!-- Generator: Adobe Illustrator 27.0.1, SVG Export Plug-In . SVG Version: 6.00 Build 0)  -->
<svg version="1.1" id="Layer_1" xmlns="http://www.w3.org/2000/svg" xmlns:xlink="http://www.w3.org/1999/xlink" x="0px" y="0px"
	 viewBox="0 0 753 1080" style="enable-background:new 0 0 753 1080;" xml:space="preserve">
<style type="text/css">
	.st0{fill:#F15A24;}
	.st1{fill:#1D1D1B;}
	.st2{fill:#009245;stroke:#000000;stroke-width:0.25;stroke-miterlimit:10;}
	.st3{fill:none;stroke:#000000;stroke-width:0.75;stroke-miterlimit:10;}
	.st4{fill:none;stroke:#006837;stroke-width:0.5;stroke-miterlimit:10;}
	.st5{opacity:0.91;}
	.st6{fill:#FCEE21;}
	.st7{fill:#FFFFFF;}
	.st8{fill:none;stroke:#000000;stroke-width:2;stroke-miterlimit:10;}
	.st9{fill:none;stroke:#000000;stroke-width:0.5;stroke-miterlimit:10;}
	.st10{fill:#3C3C3B;stroke:#000000;stroke-width:0.5;stroke-miterlimit:10;}
	.st11{fill:none;stroke:#000000;stroke-width:0.25;stroke-miterlimit:10;}
	.st12{fill:#FFFFFF;stroke:#000000;stroke-width:0.5;stroke-miterlimit:10;}
	.st13{fill:#29235C;stroke:#000000;stroke-width:0.25;stroke-miterlimit:10;}
	.st14{fill:#28348A;stroke:#000000;stroke-width:0.5;stroke-miterlimit:10;}
	.st15{fill:#313D1B;}
	.st16{opacity:0.6;}
	.st17{opacity:0.77;}
	.st18{opacity:0.69;}
	.st19{opacity:0.5;fill:#35A8E0;enable-background:new    ;}
	.st20{fill:#006633;}
	.st21{fill:none;stroke:#1D1D1B;stroke-miterlimit:10;}
	.st22{fill:#EF8000;}
	.st23{fill:#009540;}
	.st24{fill:none;stroke:#1D1D1B;stroke-width:0.25;stroke-miterlimit:10;}
	.st25{opacity:0.88;fill:#F15A24;enable-background:new    ;}
	.st26{fill:#B17F49;stroke:#1D1D1B;stroke-width:0.5;stroke-miterlimit:10;}
	.st27{fill:#FFEC00;stroke:#1D1D1B;stroke-miterlimit:10;}
	.st28{fill:#FCEA0D;stroke:#1D1D1B;stroke-miterlimit:10;}
	.st29{fill:#B17F49;stroke:#1D1D1B;stroke-width:0.25;stroke-miterlimit:10;}
	.st30{fill:#E5332A;stroke:#1D1D1B;stroke-width:0.25;stroke-miterlimit:10;}
	.st31{fill:#C99D66;stroke:#1D1D1B;stroke-miterlimit:10;}
	.st32{fill:#925F36;stroke:#1D1D1B;stroke-width:0.25;stroke-miterlimit:10;}
	.st33{fill:#FCEA0D;}
	.st34{opacity:0.37;fill:#FF0000;enable-background:new    ;}
</style>
<rect y="0.2" class="st0" width="753" height="1079.8"/>
<path class="st1" d="M463.1,431.5l-23.3-9.6c-12.6-5.1-21.2-14.7-23-25.7l-0.8-4.6c-0.8-4.6,0.6-9.3,4-13.2l0,0
	c9.1-10.7,23-18.2,39-21.3l33.5-6.3c19.8-3.7,40.1-5.2,60.4-4.4l27.3,1.1c23.7,1,46.9,5.8,68,14.2l33.8,13.5
	c10,4,17.3,11.2,19.9,19.7l0,0c2.1,6.6,0.9,13.6-3.3,19.6l0,0c-6.9,9.8-19,16.5-33.1,18.5l-4.1,0.5"/>
<path class="st2" d="M477.7,413.8l12.1-13c7.5-11.5,19.8-20.6,34.8-25.8l6.2-2.1c13.2-4.5,28-5.6,42.1-2.9l11.9,2.3
	c21.6,4.1,32,4.3,56.1,26.3l9.7,12.6c8,9.6,10.6,23,13.2,34.3l20.6,91l12.3,111.5c1.4,13,1.4,26.1,0,39.1
	c-4.9,44.3-10.6,113.6-16.4,124.3c-17.3,31.6-69.1,47-52.6,42.5l-29.7,5c-14.2,2.4-29,1.6-42.6-2.4l-18.1-5.2
	c-17-4.9-30.2-15.6-35.8-29.2l-6-14.4c-7.6-18.3-9.9-37.6-6.8-56.7l7-43.6c2.5-15.9,2.8-32,0.6-48L480.9,546l-11.5-59.1
	c-1.8-9.1-6.4-23.4-5.2-32.5l0.7-16C465.9,428.9,472.2,422.2,477.7,413.8z"/>
<path class="st3" d="M494.1,392.9l-13.6,13.5c-16.4,16.3-23.2,37.4-18.6,57.8l12.5,56.3c4.3,19.3,7.6,38.8,10,58.3l6.9,56.8
	c2.7,22.5,2.8,45.2,0.2,67.7l-8.5,74.6c-1.4,12.2,0,24.5,4.1,36.4l3.1,8.8c5.7,16.4,20.9,29.8,41.1,36.1l7,2.2
	c18.7,5.9,39.3,7.3,59,4l11-1.8c25.7-4.3,48.2-16.2,63-33.1l3.7-4.3c10.4-12,16.6-25.8,18.1-40.2l8-79.8c2.2-21.8,1.9-43.7-0.8-65.5
	l-12.6-99.7c-0.5-4-1.2-8-2.2-11.9l-22.9-96.2c-5.4-22.8-23.9-42.4-50.1-53.2l-12.2-5c-15-6.2-32.5-7.7-48.8-4.1l-24.3,5.2
	C514.1,378.4,502.5,384.5,494.1,392.9z"/>
<polyline class="st4" points="501.3,386.8 495.4,476.8 512.8,572.9 523.5,683.4 516.7,812.1 538.3,861.3 "/>
<polyline class="st4" points="538.3,373.2 544.8,474.6 567,680.4 570.9,840.8 570.9,866.9 "/>
<polyline class="st4" points="588.6,373.2 608.6,479.1 628,665 628,797.7 608.3,863.4 "/>
<g class="st5">
	<g>
		<path class="st6" d="M580.3,661.9c0.5,0,1.5-0.8,0.6-0.8C580.3,661.1,579.3,661.9,580.3,661.9L580.3,661.9z"/>
	</g>
</g>
<g class="st5">
	<g>
		<path class="st6" d="M596.1,621.2c0.7,0,1.5-0.1,2.1-0.5c0.4-0.3,0.5-0.7-0.2-0.7s-1.5,0.1-2.1,0.5
			C595.5,620.9,595.4,621.2,596.1,621.2L596.1,621.2z"/>
	</g>
</g>
<g class="st5">
	<g>
		<path class="st6" d="M659.3,615.1c0.6,0,1.6-0.2,1.9-0.8s-0.2-0.8-0.8-0.8c-0.6,0-1.6,0.2-1.9,0.8
			C658.3,614.9,658.8,615.1,659.3,615.1L659.3,615.1z"/>
	</g>
</g>
<g class="st5">
	<g>
		<path class="st6" d="M652.5,590.7c0.5,0,1.7-0.2,1.9-0.7c0.3-0.5-0.3-0.5-0.7-0.5c-0.5,0-1.7,0.2-1.9,0.7
			C651.5,590.7,652.1,590.7,652.5,590.7L652.5,590.7z"/>
	</g>
</g>
<g class="st5">
	<g>
		<path class="st6" d="M644.8,614.3c0.6,0,1.6-0.2,1.9-0.8c0.3-0.6-0.2-0.8-0.8-0.8c-0.6,0-1.6,0.2-1.9,0.8
			C643.8,614.1,644.3,614.3,644.8,614.3L644.8,614.3z"/>
	</g>
</g>
<g class="st5">
	<g>
		<path class="st6" d="M658,602.8c0.6,0,1.5-0.1,2.1-0.5c0.4-0.3,0.5-0.6-0.2-0.6c-0.6,0-1.5,0.1-2.1,0.5
			C657.5,602.5,657.4,602.8,658,602.8L658,602.8z"/>
	</g>
</g>
<g class="st5">
	<g>
		<path class="st6" d="M657.9,555.6c1.7,0,2.2-2.2,0.2-2.2C656.4,553.4,655.9,555.6,657.9,555.6L657.9,555.6z"/>
	</g>
</g>
<g class="st5">
	<g>
		<path class="st6" d="M610.6,625.5c0.6,0,1.5-0.1,2.1-0.5c0.4-0.3,0.5-0.6-0.2-0.6c-0.6,0-1.5,0.1-2.1,0.5
			C610.1,625.2,610,625.5,610.6,625.5L610.6,625.5z"/>
	</g>
</g>
<g class="st5">
	<g>
		<path class="st6" d="M634.2,609c0.6,0,1.6-0.2,1.9-0.8s-0.2-0.8-0.8-0.8c-0.6,0-1.6,0.2-1.9,0.8S633.7,609,634.2,609L634.2,609z"
			/>
	</g>
</g>
<g class="st5">
	<g>
		<path class="st6" d="M629.4,628c0.6,0,1.6-0.2,1.9-0.8c0.3-0.6-0.2-0.9-0.8-0.9c-0.6,0-1.6,0.2-1.9,0.8
			C628.3,627.7,628.8,628,629.4,628L629.4,628z"/>
	</g>
</g>
<g class="st5">
	<g>
		<path class="st6" d="M615.3,604c1.6,0,2.2-2,0.3-2C613.9,601.9,613.3,604,615.3,604L615.3,604z"/>
	</g>
</g>
<g class="st5">
	<g>
		<path class="st6" d="M619.1,593.4c1.7,0,2.2-2.1,0.3-2.1C617.8,591.3,617.2,593.4,619.1,593.4L619.1,593.4z"/>
	</g>
</g>
<g class="st5">
	<g>
		<path class="st6" d="M628.4,582.5c0.5,0,1.6-0.2,1.9-0.7c0.3-0.5-0.3-0.7-0.7-0.7c-0.5,0-1.6,0.2-1.9,0.7
			C627.3,582.3,627.9,582.5,628.4,582.5L628.4,582.5z"/>
	</g>
</g>
<g class="st5">
	<g>
		<path class="st6" d="M609.5,641.8c1.6,0,2.3-2,0.3-2C608.1,639.8,607.5,641.8,609.5,641.8L609.5,641.8z"/>
	</g>
</g>
<g class="st5">
	<g>
		<path class="st6" d="M613.9,636.4c0.6,0,1.6-0.2,1.9-0.8c0.3-0.6-0.2-1-0.8-1c-0.6,0-1.6,0.2-1.9,0.8
			C612.8,636,613.3,636.4,613.9,636.4L613.9,636.4z"/>
	</g>
</g>
<g class="st5">
	<g>
		<path d="M573.3,694.3c0.3,0,1.6-0.6,0.9-0.6C574,693.7,572.6,694.3,573.3,694.3L573.3,694.3z"/>
	</g>
</g>
<g class="st5">
	<g>
		<path class="st6" d="M633.2,583.2c0.5,0,1.6-0.2,1.9-0.7c0.3-0.5-0.3-0.6-0.7-0.6c-0.5,0-1.6,0.2-1.9,0.7
			C632.2,583.1,632.7,583.2,633.2,583.2L633.2,583.2z"/>
	</g>
</g>
<g class="st5">
	<g>
		<path class="st6" d="M646.4,566.4c0.6,0,1.5-0.1,2.1-0.5c0.4-0.3,0.5-0.6-0.2-0.6c-0.6,0-1.5,0.1-2.1,0.5
			C645.9,566.1,645.8,566.4,646.4,566.4L646.4,566.4z"/>
	</g>
</g>
<g class="st5">
	<g>
		<path class="st6" d="M651.6,535.6c0.6,0,1.6-0.2,1.9-0.8c0.3-0.6-0.2-0.7-0.7-0.7c-0.6,0-1.6,0.2-1.9,0.8
			C650.5,535.4,651.1,535.6,651.6,535.6L651.6,535.6z"/>
	</g>
</g>
<g class="st5">
	<g>
		<path class="st6" d="M660.3,505.4c0.6,0,1.6-0.2,1.9-0.8s-0.2-0.8-0.8-0.8c-0.6,0-1.6,0.2-1.9,0.8
			C659.3,505.1,659.8,505.4,660.3,505.4L660.3,505.4z"/>
	</g>
</g>
<g class="st5">
	<g>
		<path class="st6" d="M629.3,547.6c0.5,0,1.6-0.2,1.9-0.7c0.3-0.5-0.3-0.6-0.7-0.6c-0.5,0-1.6,0.2-1.9,0.7
			C628.3,547.5,628.9,547.6,629.3,547.6L629.3,547.6z"/>
	</g>
</g>
<g class="st5">
	<g>
		<path class="st6" d="M648.7,552.4c0.7,0,1.6-0.2,1.9-0.8c0.3-0.6-0.2-1.1-0.8-1.1c-0.7,0-1.6,0.2-1.9,0.8
			C647.6,552,648.1,552.4,648.7,552.4L648.7,552.4z"/>
	</g>
</g>
<g class="st5">
	<g>
		<path class="st6" d="M652.6,522.2c0.6,0,1.6-0.2,1.9-0.8c0.3-0.6-0.2-1-0.8-1c-0.6,0-1.6,0.2-1.9,0.8
			C651.5,521.7,652,522.2,652.6,522.2L652.6,522.2z"/>
	</g>
</g>
<g class="st5">
	<g>
		<path class="st6" d="M648.3,493c0.6,0,1.5-0.1,2.1-0.5c0.4-0.3,0.5-0.6-0.2-0.6c-0.6,0-1.5,0.1-2.1,0.5
			C647.8,492.7,647.7,493,648.3,493L648.3,493z"/>
	</g>
</g>
<g class="st5">
	<g>
		<path class="st6" d="M655.9,461.7c1.6,0,2.3-2,0.3-2C654.6,459.7,653.9,461.7,655.9,461.7L655.9,461.7z"/>
	</g>
</g>
<g class="st5">
	<g>
		<path class="st6" d="M637.7,510.5c0.6,0,1.5-0.1,2.1-0.5c0.4-0.3,0.5-0.6-0.2-0.6c-0.6,0-1.5,0.1-2.1,0.5
			C637.2,510.1,637,510.5,637.7,510.5L637.7,510.5z"/>
	</g>
</g>
<g class="st5">
	<g>
		<path class="st6" d="M639.6,524.8c0.7,0,1.5-0.1,2.1-0.5c0.4-0.3,0.5-0.7-0.2-0.7s-1.5,0.1-2.1,0.5
			C639.1,524.5,639,524.8,639.6,524.8L639.6,524.8z"/>
	</g>
</g>
<g class="st5">
	<g>
		<path class="st6" d="M649.7,516.7c0.6,0,1.6-0.2,1.9-0.8s-0.2-0.8-0.8-0.8c-0.6,0-1.6,0.2-1.9,0.8S649.2,516.7,649.7,516.7
			L649.7,516.7z"/>
	</g>
</g>
<g class="st5">
	<g>
		<path class="st6" d="M651.1,517c1.7,0,2.2-2.2,0.2-2.2C649.6,514.8,649.1,517,651.1,517L651.1,517z"/>
	</g>
</g>
<g class="st5">
	<g>
		<path class="st6" d="M650.6,505.3c0.6,0,1.6-0.2,1.9-0.8c0.3-0.6-0.2-0.7-0.8-0.7c-0.6,0-1.6,0.2-1.9,0.8
			C649.6,505.1,650.1,505.3,650.6,505.3L650.6,505.3z"/>
	</g>
</g>
<g class="st5">
	<g>
		<path class="st6" d="M650.7,505.5c0.6,0,1.6-0.2,1.9-0.8c0.3-0.6-0.2-1-0.8-1c-0.6,0-1.6,0.2-1.9,0.8
			C649.6,505.1,650.1,505.5,650.7,505.5L650.7,505.5z"/>
	</g>
</g>
<g class="st5">
	<g>
		<path class="st6" d="M631.3,479.7c0.6,0,1.6-0.2,1.9-0.8c0.3-0.6-0.2-0.9-0.8-0.9c-0.6,0-1.6,0.2-1.9,0.8
			C630.2,479.4,630.7,479.7,631.3,479.7L631.3,479.7z"/>
	</g>
</g>
<g class="st5">
	<g>
		<path class="st6" d="M630.9,479.5c0.7,0,1.5-0.1,2.1-0.5c0.4-0.3,0.5-0.7-0.2-0.7c-0.7,0-1.5,0.1-2.1,0.5
			C630.4,479.1,630.3,479.5,630.9,479.5L630.9,479.5z"/>
	</g>
</g>
<g class="st5">
	<g>
		<path class="st6" d="M648.7,483.5c0.6,0,1.6-0.2,1.9-0.8c0.3-0.6-0.2-0.9-0.8-0.9c-0.6,0-1.6,0.2-1.9,0.8
			C647.6,483.1,648.2,483.5,648.7,483.5L648.7,483.5z"/>
	</g>
</g>
<g class="st5">
	<g>
		<path class="st6" d="M648.8,483.6c0.7,0,1.6-0.2,1.9-0.9c0.3-0.6-0.2-1.1-0.8-1.1c-0.7,0-1.6,0.2-1.9,0.9
			C647.6,483.1,648.1,483.6,648.8,483.6L648.8,483.6z"/>
	</g>
</g>
<g class="st5">
	<g>
		<path class="st6" d="M639.1,451.8c0.7,0,1.6-0.2,1.9-0.9c0.3-0.6-0.2-1.1-0.8-1.1c-0.7,0-1.6,0.2-1.9,0.9
			C638,451.3,638.5,451.8,639.1,451.8L639.1,451.8z"/>
	</g>
</g>
<g class="st5">
	<g>
		<path class="st6" d="M639.5,451.9c1.6,0,2.2-2.1,0.3-2.1C638.1,449.8,637.5,451.9,639.5,451.9L639.5,451.9z"/>
	</g>
</g>
<g class="st5">
	<g>
		<path class="st6" d="M642.9,471.3c0.6,0,1.6-0.2,1.9-0.8c0.3-0.6-0.2-0.8-0.8-0.8c-0.6,0-1.6,0.2-1.9,0.8
			C641.8,471.1,642.4,471.3,642.9,471.3L642.9,471.3z"/>
	</g>
</g>
<g class="st5">
	<g>
		<path class="st6" d="M659.9,480.2c0.6,0,1.5-0.1,2.1-0.5c0.4-0.3,0.5-0.6-0.2-0.6c-0.6,0-1.5,0.1-2.1,0.5
			C659.4,479.9,659.3,480.2,659.9,480.2L659.9,480.2z"/>
	</g>
</g>
<g class="st5">
	<g>
		<path class="st6" d="M660.3,480.4c0.6,0,1.6-0.2,1.9-0.8c0.3-0.6-0.2-0.8-0.8-0.8c-0.6,0-1.6,0.2-1.9,0.8
			C659.3,480.2,659.8,480.4,660.3,480.4L660.3,480.4z"/>
	</g>
</g>
<g class="st5">
	<g>
		<path class="st6" d="M650.7,451c0.6,0,1.6-0.2,1.9-0.8c0.3-0.6-0.2-0.9-0.8-0.9c-0.6,0-1.6,0.2-1.9,0.8
			C649.6,450.6,650.1,451,650.7,451L650.7,451z"/>
	</g>
</g>
<g class="st5">
	<g>
		<path class="st6" d="M630.4,572.1c0.7,0,1.6-0.2,1.9-0.8c0.3-0.6-0.2-1.1-0.8-1.1c-0.7,0-1.6,0.2-1.9,0.8
			C629.2,571.7,629.8,572.1,630.4,572.1L630.4,572.1z"/>
	</g>
</g>
<g class="st5">
	<g>
		<path class="st6" d="M639,601.5c0.6,0,1.6-0.2,1.9-0.8s-0.2-0.8-0.8-0.8c-0.6,0-1.6,0.2-1.9,0.8C638,601.2,638.5,601.5,639,601.5
			L639,601.5z"/>
	</g>
</g>
<g class="st5">
	<g>
		<path class="st6" d="M579.3,635.4c0.6,0,1.5-0.9,0.6-0.9C579.3,634.5,578.4,635.4,579.3,635.4L579.3,635.4z"/>
	</g>
</g>
<g class="st5">
	<g>
		<path class="st6" d="M571.3,623.6c0.5,0,1.6-0.2,1.9-0.7c0.3-0.5-0.3-0.7-0.7-0.7c-0.5,0-1.6,0.2-1.9,0.7
			C570.2,623.5,570.8,623.6,571.3,623.6L571.3,623.6z"/>
	</g>
</g>
<g class="st5">
	<g>
		<path class="st6" d="M551.9,622.8c0.5,0,1.6-0.2,1.9-0.7c0.3-0.5-0.3-0.6-0.7-0.6c-0.5,0-1.6,0.2-1.9,0.7
			C550.9,622.7,551.5,622.8,551.9,622.8L551.9,622.8z"/>
	</g>
</g>
<g class="st5">
	<g>
		<path class="st6" d="M529.7,600.2c0.6,0,1.6-0.2,1.9-0.8c0.3-0.6-0.2-0.8-0.8-0.8c-0.6,0-1.6,0.2-1.9,0.8
			C528.6,600,529.2,600.2,529.7,600.2L529.7,600.2z"/>
	</g>
</g>
<g class="st5">
	<g>
		<path class="st6" d="M526.8,570.8c0.6,0,1.6-0.2,1.9-0.8c0.3-0.6-0.2-0.9-0.8-0.9c-0.6,0-1.6,0.2-1.9,0.8
			C525.7,570.4,526.2,570.8,526.8,570.8L526.8,570.8z"/>
	</g>
</g>
<g class="st5">
	<g>
		<path class="st6" d="M486.2,553.8c0.6,0,1.6-0.2,1.9-0.8c0.3-0.6-0.2-0.8-0.8-0.8c-0.6,0-1.6,0.2-1.9,0.8
			C485.1,553.5,485.6,553.8,486.2,553.8L486.2,553.8z"/>
	</g>
</g>
<g class="st5">
	<g>
		<path class="st6" d="M498.2,604.8c1.7,0,2.2-2.2,0.2-2.2C496.8,602.6,496.2,604.8,498.2,604.8L498.2,604.8z"/>
	</g>
</g>
<g class="st5">
	<g>
		<path class="st6" d="M499.7,574.9c0.6,0,1.6-0.2,1.9-0.8c0.3-0.6-0.2-0.8-0.8-0.8c-0.6,0-1.6,0.2-1.9,0.8
			C498.6,574.8,499.2,574.9,499.7,574.9L499.7,574.9z"/>
	</g>
</g>
<g class="st5">
	<g>
		<path class="st6" d="M523.5,554.6c0.6,0,1.5-0.2,2.1-0.5c0.4-0.3,0.5-0.5-0.1-0.5c-0.6,0-1.5,0.2-2.1,0.5
			C523,554.3,522.9,554.6,523.5,554.6L523.5,554.6z"/>
	</g>
</g>
<g class="st5">
	<g>
		<path class="st6" d="M502.1,562.3c1.6,0,2.3-2,0.3-2C500.7,560.3,500.1,562.3,502.1,562.3L502.1,562.3z"/>
	</g>
</g>
<g class="st5">
	<g>
		<path class="st6" d="M522.9,557.6c0.6,0,1.6-0.2,1.9-0.8s-0.2-0.8-0.8-0.8c-0.6,0-1.6,0.2-1.9,0.8S522.4,557.6,522.9,557.6
			L522.9,557.6z"/>
	</g>
</g>
<g class="st5">
	<g>
		<path class="st6" d="M513.2,586.2c0.5,0,1.6-0.2,1.9-0.7c0.3-0.5-0.3-0.7-0.7-0.7c-0.5,0-1.6,0.2-1.9,0.7
			C512.2,586.1,512.7,586.2,513.2,586.2L513.2,586.2z"/>
	</g>
</g>
<g class="st5">
	<g>
		<path class="st6" d="M549,588c0.5,0,1.6-0.2,1.9-0.7c0.3-0.5-0.3-0.6-0.7-0.6c-0.5,0-1.6,0.2-1.9,0.7C548,587.9,548.5,588,549,588
			L549,588z"/>
	</g>
</g>
<g class="st5">
	<g>
		<path class="st6" d="M540.3,616.8c0.6,0,1.6-0.2,1.9-0.8c0.3-0.6-0.2-0.7-0.8-0.7c-0.6,0-1.6,0.2-1.9,0.8
			C539.3,616.7,539.8,616.8,540.3,616.8L540.3,616.8z"/>
	</g>
</g>
<g class="st5">
	<g>
		<path class="st6" d="M579,598.6c0.5,0,1.6-0.2,1.9-0.7c0.3-0.5-0.3-0.7-0.7-0.7c-0.5,0-1.6,0.2-1.9,0.7
			C578,598.5,578.5,598.6,579,598.6L579,598.6z"/>
	</g>
</g>
<g class="st5">
	<g>
		<path class="st6" d="M579.6,618.2c0.6,0,1.5-0.1,2.1-0.5c0.4-0.3,0.5-0.6-0.2-0.6c-0.6,0-1.5,0.1-2.1,0.5
			C579.1,617.9,579,618.2,579.6,618.2L579.6,618.2z"/>
	</g>
</g>
<g class="st5">
	<g>
		<path class="st6" d="M555.3,596.8c1.7,0,2.2-2.2,0.2-2.2C553.8,594.5,553.3,596.8,555.3,596.8L555.3,596.8z"/>
	</g>
</g>
<g class="st5">
	<g>
		<path class="st6" d="M592.6,554.8c0.6,0,1.6-0.2,1.9-0.8s-0.2-0.8-0.8-0.8c-0.6,0-1.6,0.2-1.9,0.8
			C591.5,554.6,592.1,554.8,592.6,554.8L592.6,554.8z"/>
	</g>
</g>
<g class="st5">
	<g>
		<path class="st6" d="M616.2,573.7c1.6,0,2.3-2,0.3-2C614.9,571.7,614.3,573.7,616.2,573.7L616.2,573.7z"/>
	</g>
</g>
<g class="st5">
	<g>
		<path class="st6" d="M616.2,549.5c1.6,0,2.3-2,0.3-2C614.9,547.5,614.3,549.5,616.2,549.5L616.2,549.5z"/>
	</g>
</g>
<g class="st5">
	<g>
		<path class="st6" d="M616.8,515.9c0.6,0,1.6-0.2,1.9-0.8c0.3-0.6-0.2-0.7-0.8-0.7c-0.6,0-1.6,0.2-1.9,0.8
			C615.7,515.8,616.3,515.9,616.8,515.9L616.8,515.9z"/>
	</g>
</g>
<g class="st5">
	<g>
		<path class="st6" d="M587.8,589.7c0.6,0,1.6-0.2,1.9-0.8c0.3-0.6-0.2-1-0.8-1c-0.6,0-1.6,0.2-1.9,0.8
			C586.7,589.3,587.2,589.7,587.8,589.7L587.8,589.7z"/>
	</g>
</g>
<g class="st5">
	<g>
		<path class="st6" d="M561.1,580.9c1.7,0,2.2-2.3,0.2-2.3C559.6,578.6,559.2,580.9,561.1,580.9L561.1,580.9z"/>
	</g>
</g>
<g class="st5">
	<g>
		<path class="st6" d="M560.6,551.7c0.5,0,1.6-0.2,1.9-0.7c0.3-0.5-0.3-0.6-0.7-0.6c-0.5,0-1.6,0.2-1.9,0.7
			C559.6,551.6,560.2,551.7,560.6,551.7L560.6,551.7z"/>
	</g>
</g>
<g class="st5">
	<g>
		<path class="st6" d="M593.6,539.7c0.6,0,1.6-0.2,1.9-0.8c0.3-0.6-0.2-0.9-0.8-0.9c-0.6,0-1.6,0.2-1.9,0.8
			C592.5,539.4,593,539.7,593.6,539.7L593.6,539.7z"/>
	</g>
</g>
<g class="st5">
	<g>
		<path class="st6" d="M626.5,563c0.6,0,1.6-0.2,1.9-0.8c0.3-0.6-0.2-0.9-0.8-0.9c-0.6,0-1.6,0.2-1.9,0.8
			C625.4,562.6,625.9,563,626.5,563L626.5,563z"/>
	</g>
</g>
<g class="st5">
	<g>
		<path class="st6" d="M616.7,583.2c0.5,0,1.6-0.2,1.9-0.7c0.3-0.5-0.3-0.6-0.7-0.6c-0.5,0-1.6,0.2-1.9,0.7
			C615.7,583.1,616.3,583.2,616.7,583.2L616.7,583.2z"/>
	</g>
</g>
<g class="st5">
	<g>
		<path class="st6" d="M641.9,577.2c0.6,0,1.6-0.2,1.9-0.8c0.3-0.6-0.2-0.8-0.8-0.8c-0.6,0-1.6,0.2-1.9,0.8
			C640.9,577,641.4,577.2,641.9,577.2L641.9,577.2z"/>
	</g>
</g>
<g class="st5">
	<g>
		<path class="st6" d="M631.7,597.2c1.6,0,2.2-2.1,0.3-2.1C630.4,595.1,629.8,597.2,631.7,597.2L631.7,597.2z"/>
	</g>
</g>
<g class="st5">
	<g>
		<path class="st6" d="M585.9,640.6c0.3,0,1.6-0.6,0.9-0.6C586.6,640,585.2,640.6,585.9,640.6L585.9,640.6z"/>
	</g>
</g>
<g class="st5">
	<g>
		<path class="st6" d="M514.7,622.9c1.7,0,2.2-2.1,0.2-2.1C513.3,620.8,512.7,622.9,514.7,622.9L514.7,622.9z"/>
	</g>
</g>
<g class="st5">
	<g>
		<path class="st6" d="M513.2,607.5c0.6,0,1.6-0.2,1.9-0.8s-0.2-0.8-0.8-0.8c-0.6,0-1.6,0.2-1.9,0.8
			C512.2,607.3,512.7,607.5,513.2,607.5L513.2,607.5z"/>
	</g>
</g>
<g class="st5">
	<g>
		<path class="st6" d="M498.8,598.5c0.6,0,1.6-0.2,1.9-0.8c0.3-0.6-0.2-1-0.8-1c-0.6,0-1.6,0.2-1.9,0.8
			C497.7,598.2,498.2,598.5,498.8,598.5L498.8,598.5z"/>
	</g>
</g>
<g class="st5">
	<g>
		<path class="st6" d="M490.6,587.6c0.6,0,1.5-0.2,2.1-0.5c0.4-0.3,0.5-0.5-0.1-0.5c-0.6,0-1.5,0.2-2.1,0.5
			C490.1,587.3,490,587.6,490.6,587.6L490.6,587.6z"/>
	</g>
</g>
<g class="st5">
	<g>
		<path class="st6" d="M487.1,572c0.6,0,1.6-0.2,1.9-0.8c0.3-0.6-0.2-0.8-0.8-0.8c-0.6,0-1.6,0.2-1.9,0.8
			C486.1,571.7,486.6,572,487.1,572L487.1,572z"/>
	</g>
</g>
<g class="st5">
	<g>
		<path class="st6" d="M485.8,538.4c0.6,0,1.5-0.1,2.1-0.5c0.4-0.3,0.5-0.6-0.2-0.6c-0.6,0-1.5,0.1-2.1,0.5
			C485.2,538.1,485.1,538.4,485.8,538.4L485.8,538.4z"/>
	</g>
</g>
<g class="st5">
	<g>
		<path class="st6" d="M481,525.6c0.7,0,1.5-0.1,2.1-0.5c0.4-0.3,0.5-0.7-0.2-0.7s-1.5,0.1-2.1,0.5
			C480.4,525.2,480.3,525.6,481,525.6L481,525.6z"/>
	</g>
</g>
<g class="st5">
	<g>
		<path class="st6" d="M487.2,548.6c0.6,0,1.6-0.2,1.9-0.8c0.3-0.6-0.2-1-0.8-1c-0.6,0-1.6,0.2-1.9,0.8
			C486.1,548.2,486.6,548.6,487.2,548.6L487.2,548.6z"/>
	</g>
</g>
<g class="st5">
	<g>
		<path class="st6" d="M496.8,551.4c0.5,0,1.6-0.2,1.9-0.7c0.3-0.5-0.3-0.7-0.7-0.7c-0.5,0-1.6,0.2-1.9,0.7
			C495.7,551.3,496.3,551.4,496.8,551.4L496.8,551.4z"/>
	</g>
</g>
<g class="st5">
	<g>
		<path class="st6" d="M506,544.3c1.7,0,2.2-2.2,0.2-2.2C504.5,542,504,544.3,506,544.3L506,544.3z"/>
	</g>
</g>
<g class="st5">
	<g>
		<path class="st6" d="M511.3,557.7c0.6,0,1.6-0.2,1.9-0.8c0.3-0.6-0.2-1-0.8-1c-0.6,0-1.6,0.2-1.9,0.8
			C510.3,557.3,510.7,557.7,511.3,557.7L511.3,557.7z"/>
	</g>
</g>
<g class="st5">
	<g>
		<path class="st6" d="M545.8,556.1c0.6,0,1.5-0.2,2.1-0.5c0.4-0.3,0.5-0.5-0.2-0.5c-0.6,0-1.5,0.2-2.1,0.5
			C545.2,555.8,545.1,556.1,545.8,556.1L545.8,556.1z"/>
	</g>
</g>
<g class="st5">
	<g>
		<path class="st6" d="M520,576.4c0.5,0,1.6-0.2,1.9-0.7c0.3-0.5-0.3-0.6-0.7-0.6c-0.5,0-1.6,0.2-1.9,0.7
			C519,576.3,519.5,576.4,520,576.4L520,576.4z"/>
	</g>
</g>
<g class="st5">
	<g>
		<path class="st6" d="M540.4,579.9c0.6,0,1.6-0.2,1.9-0.8c0.3-0.6-0.2-0.9-0.8-0.9c-0.6,0-1.6,0.2-1.9,0.8
			C539.3,579.5,539.8,579.9,540.4,579.9L540.4,579.9z"/>
	</g>
</g>
<g class="st5">
	<g>
		<path class="st6" d="M516.8,601.3c0.7,0,1.5-0.1,2.1-0.5c0.4-0.3,0.5-0.7-0.2-0.7s-1.5,0.1-2.1,0.5
			C516.2,600.9,516.1,601.3,516.8,601.3L516.8,601.3z"/>
	</g>
</g>
<g class="st5">
	<g>
		<path class="st6" d="M547.1,609.2c0.5,0,1.6-0.2,1.9-0.8c0.3-0.6-0.3-0.7-0.7-0.7c-0.5,0-1.6,0.2-1.9,0.8
			C546,609.1,546.6,609.2,547.1,609.2L547.1,609.2z"/>
	</g>
</g>
<g class="st5">
	<g>
		<path class="st6" d="M548.4,646.8c0.6,0,1.5-0.9,0.5-0.9C548.3,645.9,547.4,646.8,548.4,646.8L548.4,646.8z"/>
	</g>
</g>
<g class="st5">
	<g>
		<path class="st6" d="M563.2,611.4c0.6,0,1.5-0.1,2.1-0.5c0.4-0.3,0.5-0.6-0.2-0.6c-0.6,0-1.5,0.1-2.1,0.5
			C562.6,611,562.6,611.4,563.2,611.4L563.2,611.4z"/>
	</g>
</g>
<g class="st5">
	<g>
		<path class="st6" d="M585.8,576.8c0.6,0,1.6-0.2,1.9-0.8c0.3-0.6-0.2-1-0.8-1c-0.6,0-1.6,0.2-1.9,0.8
			C584.8,576.5,585.3,576.8,585.8,576.8L585.8,576.8z"/>
	</g>
</g>
<g class="st5">
	<g>
		<path class="st6" d="M571.7,590.6c1.6,0,2.2-2.1,0.3-2.1C570.4,588.6,569.8,590.6,571.7,590.6L571.7,590.6z"/>
	</g>
</g>
<g class="st5">
	<g>
		<path class="st6" d="M593.5,606.2c0.6,0,1.6-0.2,1.9-0.8c0.3-0.6-0.3-0.7-0.7-0.7c-0.6,0-1.6,0.2-1.9,0.8
			C592.5,606.1,593,606.2,593.5,606.2L593.5,606.2z"/>
	</g>
</g>
<g class="st5">
	<g>
		<path class="st6" d="M601.7,590.7c1.7,0,2.2-2.2,0.2-2.2C600.3,588.5,599.8,590.7,601.7,590.7L601.7,590.7z"/>
	</g>
</g>
<g class="st5">
	<g>
		<path class="st6" d="M607.1,606.2c0.6,0,1.6-0.2,1.9-0.8s-0.2-0.8-0.8-0.8c-0.6,0-1.6,0.2-1.9,0.8
			C606,606,606.6,606.2,607.1,606.2L607.1,606.2z"/>
	</g>
</g>
<g class="st5">
	<g>
		<path class="st6" d="M601.9,581.8c0.6,0,1.5-0.1,2.1-0.5c0.4-0.3,0.5-0.6-0.2-0.6c-0.6,0-1.5,0.1-2.1,0.5
			C601.4,581.5,601.3,581.8,601.9,581.8L601.9,581.8z"/>
	</g>
</g>
<g class="st5">
	<g>
		<path class="st6" d="M605.1,557.7c0.5,0,1.6-0.2,1.9-0.7c0.3-0.5-0.3-0.6-0.7-0.6c-0.5,0-1.6,0.2-1.9,0.7
			C604.1,557.7,604.7,557.7,605.1,557.7L605.1,557.7z"/>
	</g>
</g>
<g class="st5">
	<g>
		<path class="st6" d="M600.8,576.2c1.6,0,2.2-2,0.3-2C599.4,574.2,598.8,576.2,600.8,576.2L600.8,576.2z"/>
	</g>
</g>
<g class="st5">
	<g>
		<path class="st6" d="M600.8,583.8c1.6,0,2.2-2,0.3-2C599.4,581.8,598.8,583.8,600.8,583.8L600.8,583.8z"/>
	</g>
</g>
<g class="st5">
	<g>
		<path class="st6" d="M624,530.6c1.7,0,2.2-2.1,0.2-2.1C622.6,528.5,622,530.6,624,530.6L624,530.6z"/>
	</g>
</g>
<g class="st5">
	<g>
		<path class="st6" d="M651.6,581.8c0.6,0,1.6-0.2,1.9-0.8c0.3-0.6-0.2-0.7-0.8-0.7c-0.6,0-1.6,0.2-1.9,0.8
			C650.5,581.6,651.1,581.8,651.6,581.8L651.6,581.8z"/>
	</g>
</g>
<g class="st5">
	<g>
		<path class="st6" d="M628.4,501.5c0.5,0,1.6-0.2,1.9-0.8c0.3-0.6-0.3-0.7-0.7-0.7c-0.5,0-1.6,0.2-1.9,0.8
			C627.3,501.4,627.9,501.5,628.4,501.5L628.4,501.5z"/>
	</g>
</g>
<g class="st5">
	<g>
		<path class="st6" d="M646.3,440.6c1.7,0,2.2-2.2,0.2-2.2C644.8,438.4,644.3,440.6,646.3,440.6L646.3,440.6z"/>
	</g>
</g>
<g class="st5">
	<g>
		<path class="st6" d="M558.8,661.8c0.3,0,0.8,0,1-0.3c0.1-0.2,0.3-0.3-0.1-0.3c-0.3,0-0.8,0-1,0.3
			C558.6,661.6,558.5,661.8,558.8,661.8L558.8,661.8z"/>
	</g>
</g>
<g class="st5">
	<g>
		<path d="M569.7,683.1c0.6,0,1.5-0.9,0.6-0.9C569.6,682.2,568.7,683.1,569.7,683.1L569.7,683.1z"/>
	</g>
</g>
<g class="st5">
	<g>
		<path class="st6" d="M573.3,658c0.3,0,1.6-0.6,0.9-0.6C574,657.4,572.6,658,573.3,658L573.3,658z"/>
	</g>
</g>
<g class="st5">
	<g>
		<path class="st6" d="M549.4,632.4c0.6,0,1.5-1,0.5-1C549.3,631.5,548.4,632.4,549.4,632.4L549.4,632.4z"/>
	</g>
</g>
<g class="st5">
	<g>
		<path class="st6" d="M525.8,628.9c0.6,0,1.6-0.2,1.9-0.8c0.3-0.6-0.2-0.7-0.7-0.7c-0.6,0-1.6,0.2-1.9,0.8
			C524.8,628.8,525.3,628.9,525.8,628.9L525.8,628.9z"/>
	</g>
</g>
<g class="st5">
	<g>
		<path class="st6" d="M573.7,651.4c0.8,0,1.1-1.1,0.1-1.1C573,650.3,572.8,651.4,573.7,651.4L573.7,651.4z"/>
	</g>
</g>
<g class="st5">
	<g>
		<path class="st6" d="M567.5,643.6c0.3,0,1.6-0.6,0.9-0.6C568.2,643,566.8,643.6,567.5,643.6L567.5,643.6z"/>
	</g>
</g>
<g class="st5">
	<g>
		<path class="st6" d="M601.6,663.4c0.6,0,1.5-0.8,0.6-0.8C601.6,662.6,600.6,663.4,601.6,663.4L601.6,663.4z"/>
	</g>
</g>
<g class="st5">
	<g>
		<path class="st6" d="M584,655.7c0.3,0,1.6-0.5,0.9-0.5C584.6,655.2,583.3,655.7,584,655.7L584,655.7z"/>
	</g>
</g>
<g class="st5">
	<g>
		<path class="st6" d="M596.4,631.1c0.5,0,1.6-0.2,1.9-0.7c0.3-0.5-0.3-0.6-0.7-0.6c-0.5,0-1.6,0.2-1.9,0.7
			C595.4,631.1,596,631.1,596.4,631.1L596.4,631.1z"/>
	</g>
</g>
<g class="st5">
	<g>
		<path class="st6" d="M594.1,650.7c0.8,0,1.1-1.1,0.1-1.1C593.3,649.6,593.1,650.7,594.1,650.7L594.1,650.7z"/>
	</g>
</g>
<g class="st5">
	<g>
		<path class="st6" d="M620.6,617.2c0.5,0,1.7-0.2,1.9-0.7c0.3-0.5-0.3-0.6-0.7-0.6c-0.5,0-1.7,0.2-1.9,0.7
			C619.6,617.2,620.2,617.2,620.6,617.2L620.6,617.2z"/>
	</g>
</g>
<g class="st5">
	<g>
		<path class="st6" d="M621.1,617.6c1.6,0,2.3-2,0.3-2C619.7,615.6,619.1,617.6,621.1,617.6L621.1,617.6z"/>
	</g>
</g>
<g class="st5">
	<g>
		<path class="st6" d="M620.3,617.2c0.6,0,1.5-0.1,2.1-0.5c0.4-0.3,0.5-0.6-0.2-0.6s-1.5,0.1-2.1,0.5
			C619.7,616.8,619.6,617.2,620.3,617.2L620.3,617.2z"/>
	</g>
</g>
<g class="st5">
	<g>
		<path class="st6" d="M640.9,624.8c0.5,0,1.6-0.2,1.9-0.7c0.3-0.5-0.3-0.6-0.7-0.6c-0.5,0-1.6,0.2-1.9,0.7
			C639.9,624.7,640.5,624.8,640.9,624.8L640.9,624.8z"/>
	</g>
</g>
<g class="st5">
	<g>
		<path class="st6" d="M639.6,624c0.6,0,1.5-0.1,2.1-0.5c0.4-0.3,0.5-0.6-0.2-0.6s-1.5,0.1-2.1,0.5C639.1,623.6,639,624,639.6,624
			L639.6,624z"/>
	</g>
</g>
<g class="st5">
	<g>
		<path class="st6" d="M639,624.9c0.6,0,1.6-0.2,1.9-0.8c0.3-0.6-0.2-0.8-0.8-0.8c-0.6,0-1.6,0.2-1.9,0.8
			C638,624.7,638.5,624.9,639,624.9L639,624.9z"/>
	</g>
</g>
<g class="st5">
	<g>
		<path class="st6" d="M578.7,567.4c0.6,0,1.5-0.2,2.1-0.5c0.4-0.3,0.5-0.5-0.2-0.5c-0.6,0-1.5,0.2-2.1,0.5
			C578.1,567.2,578,567.4,578.7,567.4L578.7,567.4z"/>
	</g>
</g>
<g class="st5">
	<g>
		<path class="st6" d="M578.7,567.5c0.7,0,1.5-0.1,2.1-0.5c0.4-0.3,0.5-0.7-0.2-0.7s-1.5,0.1-2.1,0.5
			C578.1,567.1,578,567.5,578.7,567.5L578.7,567.5z"/>
	</g>
</g>
<g class="st5">
	<g>
		<path class="st6" d="M549.6,569c0.6,0,1.5-0.2,2.1-0.5c0.4-0.3,0.5-0.5-0.2-0.5c-0.6,0-1.5,0.2-2.1,0.5
			C549.1,568.7,549,569,549.6,569L549.6,569z"/>
	</g>
</g>
<g class="st5">
	<g>
		<path class="st6" d="M550,569c0.5,0,1.7-0.2,1.9-0.7c0.3-0.5-0.3-0.5-0.7-0.5c-0.5,0-1.7,0.2-1.9,0.7C549,569,549.5,569,550,569
			L550,569z"/>
	</g>
</g>
<polyline class="st4" points="643.9,414.8 664.4,507.9 683.7,667.3 683.7,781.2 664,837.5 "/>
<g class="st5">
	<g>
		<path class="st6" d="M571.3,560.7c0.5,0,1.6-0.2,1.9-0.7c0.3-0.5-0.3-0.6-0.7-0.6c-0.5,0-1.6,0.2-1.9,0.7
			C570.2,560.7,570.8,560.7,571.3,560.7L571.3,560.7z"/>
	</g>
</g>
<g class="st5">
	<g>
		<path class="st6" d="M571.3,560c0.6,0,1.6-0.2,1.9-0.8c0.3-0.6-0.2-0.7-0.7-0.7c-0.6,0-1.6,0.2-1.9,0.8
			C570.2,559.9,570.8,560,571.3,560L571.3,560z"/>
	</g>
</g>
<ellipse transform="matrix(0.9973 -7.340018e-02 7.340018e-02 0.9973 -33.4811 44.1254)" class="st7" cx="583.6" cy="477.6" rx="16" ry="23.7"/>
<ellipse class="st1" cx="588.2" cy="482.8" rx="6.9" ry="14.7"/>
<ellipse transform="matrix(0.9793 -0.2024 0.2024 0.9793 -86.9282 115.7027)" class="st7" cx="522.3" cy="482.9" rx="15.9" ry="23.9"/>
<ellipse transform="matrix(0.9938 -0.1113 0.1113 0.9938 -51.0307 61.7226)" class="st1" cx="527.3" cy="487.9" rx="6.9" ry="14.7"/>
<polygon class="st8" points="561.4,460.6 647.3,452.2 658,498.1 565.2,502.6 "/>
<polygon class="st8" points="468.2,469.9 542,465.2 546,506 471.2,506 "/>
<line class="st9" x1="544.2" y1="487.9" x2="564.1" y2="485.6"/>
<path class="st8" d="M652.2,483.4l6.4-7.3c1.4-1.6,3.8-2.6,6.3-2.6h2.8c4.4,0,8.2,2.5,8.9,5.9l1.7,8.3"/>
<line class="st8" x1="468.2" y1="498.2" x2="460.6" y2="498.2"/>
<path class="st10" d="M487.5,603.8l50.8,34.2l32.6,83.2l31-82.5l92.6-44.6l4.7,45.9c2.3,22.8,2.3,45.7,0,68.5l-8,79.7
	c-0.8,8.1-3.7,16-8.4,23.2l0,0c-9.3,14.3-22.9,26.6-39.6,36l0,0c-16.3,9.1-35,15.1-54.8,17.4l-17.5,2.1l-26.7-5.6
	c-11-2.3-20.8-7.2-28.1-14.1l-4.4-4.1c-14.1-13.2-23.4-29.1-26.9-46l0,0c-1.5-7.1-1.6-14.3-0.3-21.4l6.1-34.4
	c5.2-28.9,6.1-58.1,2.7-87.1L487.5,603.8z"/>
<path class="st1" d="M487.5,603.8l50.8,34.2l32.6,83.2l-42.3-45c-3.9-4.1-3.9-9.7-0.1-13.9l9.6-10.5c0.1-0.1,0-0.2-0.1-0.2
	l-15.7-1.3c-7.5-0.6-13.9-4.6-16.4-10.2l0,0c-3.1-7-6.5-13.9-10.1-20.8L487.5,603.8z"/>
<path class="st1" d="M570.9,721.3l44.2-41.1c5.3-4.9,5.7-12,0.9-17.3l-12.2-13.5h29.8c9,0,17.2-4,21.1-10.4l9.1-14.9l30.7-29.9
	l-92.6,44.6L570.9,721.3z"/>
<polyline class="st11" points="570.9,721.3 565.1,764.4 565.1,828 565.1,865.7 "/>
<path class="st12" d="M538.3,638l32.4,84.2l31.2-83.5l-23.2,7.6c-8.5,2.8-18.3,2.2-26.2-1.6L538.3,638z"/>
<path class="st13" d="M502.4,626.5l55.1,17.4c0.5,0.2,1,0.2,1.5,0.2l19.4-0.1c0.8,0,1.5-0.2,2.2-0.5l47.4-25.7
	c5.3-2.9,12.5,0.6,11.6,5.6l-4,21.8c-1.8,9.7-0.6,19.6,3.3,29l5.6,13.1c1.1,2.6-2.5,5-5.6,3.6l-58.7-26.2c-0.6-0.3-1.3-0.4-1.9-0.4
	l-18.9,0.1c-0.9,0-1.8,0.3-2.5,0.7l-52.8,35.2c-2.9,2-7.3-0.3-6.2-3.2l4.6-12.3c4.2-11.1,4.6-22.8,1.1-34l-6.4-20.7
	C496.4,627.6,499.5,625.5,502.4,626.5z"/>
<path class="st14" d="M557.7,646.3v16.3c0,0.9,0.9,1.6,2,1.6h17.9c1.1,0,2-0.7,2-1.6V645c0-0.9-1-1.7-2.2-1.6l-17.9,1.3
	C558.5,644.8,557.7,645.5,557.7,646.3z"/>
<path class="st1" d="M498.3,349.2l17.6-22.4c3.1-3.9,7.3-7.1,12.4-9.3l16.8-7.4c5.8-2.6,12.7-3.4,19.3-2.2l5.6,1
	c23.9,4.4,45.7,14.1,62.6,28.1l0,0c6.3,5.2,9,12.4,7.2,19.5l-0.2,0.8L586.4,347l-45.5-1.6L498.3,349.2z"/>
<polygon class="st15" points="506.1,339.4 540.9,334.6 569.9,334.6 607.7,339.4 639.6,347.6 639.6,357.4 605.7,349.1 554.1,345.6 
	523.5,347 498.3,349.2 "/>
<g class="st16">
	<g>
		<path class="st7" d="M593.2,655.8c2.4,0,2.4-3.8,0-3.8C590.7,652,590.7,655.8,593.2,655.8L593.2,655.8z"/>
	</g>
</g>
<g class="st16">
	<g>
		<path class="st7" d="M608.6,651.7c2.4,0,2.4-3.8,0-3.8C606.2,648,606.2,651.7,608.6,651.7L608.6,651.7z"/>
	</g>
</g>
<g class="st16">
	<g>
		<path class="st7" d="M628,640.4c2.4,0,2.4-3.8,0-3.8C625.6,636.6,625.6,640.4,628,640.4L628,640.4z"/>
	</g>
</g>
<g class="st16">
	<g>
		<path class="st7" d="M624.1,666.1c2.4,0,2.4-3.8,0-3.8C621.7,662.4,621.7,666.1,624.1,666.1L624.1,666.1z"/>
	</g>
</g>
<g class="st17">
	<g>
		<path class="st7" d="M609.6,679c2.4,0,2.4-3.8,0-3.8C607.2,675.2,607.2,679,609.6,679L609.6,679z"/>
	</g>
</g>
<g class="st18">
	<g>
		<path class="st7" d="M632.8,690.3c2.4,0,2.4-3.8,0-3.8C630.4,686.6,630.4,690.3,632.8,690.3L632.8,690.3z"/>
	</g>
</g>
<g class="st16">
	<g>
		<path class="st7" d="M513.8,695.6c2.4,0,2.4-3.8,0-3.8C511.4,691.9,511.4,695.6,513.8,695.6L513.8,695.6z"/>
	</g>
</g>
<g class="st16">
	<g>
		<path class="st7" d="M535.1,670.9c2.4,0,2.4-3.8,0-3.8C532.7,667.2,532.7,670.9,535.1,670.9L535.1,670.9z"/>
	</g>
</g>
<g class="st16">
	<g>
		<path class="st7" d="M543.8,656.5c2.4,0,2.4-3.8,0-3.8S541.4,656.5,543.8,656.5L543.8,656.5z"/>
	</g>
</g>
<g class="st16">
	<g>
		<path class="st7" d="M530.3,644.4c2.4,0,2.4-3.8,0-3.8C527.9,640.7,527.8,644.4,530.3,644.4L530.3,644.4z"/>
	</g>
</g>
<g class="st16">
	<g>
		<path class="st7" d="M507,648c2.4,0,2.4-3.8,0-3.8C504.6,644.2,504.6,648,507,648L507,648z"/>
	</g>
</g>
<g class="st16">
	<g>
		<path class="st7" d="M516.7,668.4c2.4,0,2.4-3.8,0-3.8C514.3,664.6,514.3,668.4,516.7,668.4L516.7,668.4z"/>
	</g>
</g>
<polygon class="st19" points="470.8,471.5 539.7,467.1 542.8,503.5 473.6,503.8 "/>
<path class="st20" d="M467,426l13.1-19.9c6.5-7.3,16.8-19.1,27.1-23l17.4-8.1c15.7-5.9,27-6.5,44.4-5.7l10.6,2.4
	c20.9,1,36.6,9.3,53.6,18.9l0,0c12,6.7,14.6,18,22.8,27.5l-8.7-4.3l-15-4.7c-7.4-2.3-15.1-4.1-22.9-5.3l-16-2.5
	c-11.3-1.8-22.8-2.3-34.3-1.7l-25.2,1.4c-8.8,0.5-17.3,2.5-24.9,6L467,426z"/>
<polygon class="st19" points="564.1,462.1 644.9,454.9 654.8,496.5 568,500.3 "/>
<g>
	<path class="st21" d="M262.8,609c-25.1,5.8-52.2,12.1-76.8,33.2c-18.4,15.8-29.5,34.9-44.4,60.4c-7.8,13.5-11.8,20.2-14.1,28.2
		c-1.7,5.9-6.6,25.7,8.7,71.5c11.3,33.7,16.9,50.6,31.4,64.5c12.3,11.8,26.9,18.7,74.7,29.2c75.2,16.6,112.9,24.8,147.2,17.1
		c17-3.8,65.2-14.6,93.1-54.4c19.6-27.9,19.5-56.3,19.5-95.7c0-20.7-0.4-50.9-17.3-84.6c-5.6-11.2-12.2-24.4-26-37.3
		c-27.3-25.6-61.5-30.4-96.3-35.2c-25.6-3.6-44.7-3.5-53.2-3.2C286.5,603.8,269.4,607.4,262.8,609z"/>
	<path class="st22" d="M249.4,615.5c-30.5,4.6-51.2,22-59,28.7c-2.3,2-12,10.5-21.7,24.2c-13,18.4-17.8,34.5-24.3,57.5
		c-7,24.6-10.5,36.9-9.5,52.1c1.4,22.3,10,38.6,15.1,48.2c5,9.3,14.7,27,34.8,42.3c11.3,8.6,23.8,14.9,43.6,21.3
		c22.9,7.4,64.2,17.6,126.3,15.4c49.9-1.8,74.8-2.8,97.9-19.8c20.9-15.5,29.1-35.4,36.9-54.5c17.8-43.4,12.2-81.7,9.3-100.2
		c-2.7-16.7-5.5-34.6-17.6-55.3c-5.9-10.2-22-36.7-54.9-52.5c-29.5-14.1-58.9-12.9-85.4-11.9c-19.2,0.8-30.6,3.6-63.7,4
		C257.9,615.2,257.3,614.3,249.4,615.5z"/>
	<path class="st23" d="M315.4,540.8l-4.3,3.5c-0.2,0.1-0.2,0.3-0.2,0.5l7,18.1c0,0,0,0.1,0,0.1l0.7,16.1v15.2c0,0,0,0.1,0,0.1
		l-1.5,6c-0.1,0.3,0.2,0.6,0.5,0.6h4.9h3.5c0.3,0,0.5-0.2,0.5-0.5V583l-0.4-12.2c0,0,0,0,0-0.1l-3.8-10.5c0,0-1.2-3.9-1.2-3.9
		l-0.9-3.9c0,0-1.5-3.8-1.5-3.9l-2.6-7.7C316,540.7,315.7,540.6,315.4,540.8z"/>
	<path class="st23" d="M326.6,583l5.1-2.2c8.2-3.6,15.7-8.5,22-14.6l0,0c8.7-8.3,20-13.8,32.2-15.8l3.7-0.6c9.1-1.5,18.5-1,27.4,1.5
		l3.1,0.9c10.9,3.1,21,8.2,29.7,15.1l0,0c7.2,5.8,13.7,12.3,19.3,19.5l13.3,17.2l13.5,28.4l-33.5-17.7l-32.1-18l-33.4-11.8
		l-29.5-6.2l-10.1-0.3c-2.8-0.1-5.7,0.3-8.3,1.2l-20.9,6.6L326.6,583z"/>
	<path class="st21" d="M326.6,583l17.5-7.7l7.9-9.1c8.2-9.4,19.9-15.5,32.8-17.2l6.4-0.8c6.5-0.8,13.2-0.4,19.5,1.1l12.1,3
		c7.7,1.9,14.9,5.4,21,10.2l14.5,11.4c1.2,0.9,2.2,2,3.2,3.1l15.6,19.7c3.1,3.9,5.7,8.1,7.8,12.6l12.6,26.4l-42.3-25.2l-20.6-9.4
		l-22.5-9.8l-20.7-8.7l-18.7-3.7l-18.7-0.9l-20.2,5.8l-7.1,2.7V583z"/>
	<path class="st24" d="M376.8,562.8c6.7-1.4,17.6-2.9,30.5-0.7c16.5,2.8,27.5,10.2,35.6,15.5c6.6,4.4,15.8,11.5,24.7,22.3"/>
	<path class="st21" d="M309.3,544.2l6.9-6.3l3,6.7c4.9,11.1,7.4,22.9,7.4,34.9l0,0v23.2h-13l1.8-3.9c1.9-4.3,2.9-9,2.9-13.6l0,0
		c0-10.9-1.9-21.8-5.8-32.1L309.3,544.2L309.3,544.2z"/>
	<path class="st25" d="M439.1,640c-21.7-12-22.9-12.7-26.2-13.7c-4.9-1.6-11.1-2.2-23.6-3.4c-12.4-1.2-18.6-1.8-19.1,0.2
		c-0.6,2.3,6,6.7,18,14.2c27.3,17.3,41.2,26.1,53,30.5c8,3,29.3,11,32.5,5.9c2.7-4.3-8.6-17.3-19.3-25.1
		C452.9,647.6,452.5,647.3,439.1,640z"/>
	<ellipse class="st7" cx="233.7" cy="719.2" rx="10.5" ry="20.2"/>
	<ellipse class="st7" cx="285.1" cy="719.2" rx="10" ry="20.2"/>
	<ellipse class="st1" cx="236.9" cy="724.9" rx="4.8" ry="12.3"/>
	<ellipse class="st1" cx="287.3" cy="724.9" rx="5" ry="12.5"/>
	<path class="st24" d="M127,766.4l26.8,11.3c8,3.3,16.3,5.8,24.9,7.4l39.4,7.2l5.4,1.1c8.9,1.8,18,2.8,27.1,3.2l43.1,2
		c5.6,0.2,11.2,0.3,16.8,0l66.3-2.6l51.3-5.9c8.4-1,16.7-2.7,24.8-5.2l9.2-2.8c14.3-4.4,27.7-10.8,40-18.9l0,0l-1.6,46.2l-8.6,33
		l-24.3,33.6l-45.4,27.6L358.3,916l-49-5.9L242.2,896l-5.9-1.5c-20.5-5.2-40.4-12.3-59.4-21.3l-4.6-2.2l0,0
		c-11.2-13.1-20.1-27.8-26.2-43.5l-5.7-14.4c-2.8-7.2-5.2-14.5-7.1-22L127,766.4z"/>
	<polygon class="st26" points="268.2,805.5 259.2,845.2 259.2,858.7 261.1,870.9 259.7,894.7 282.3,847.7 299.1,839.5 282.3,832.1 
		310.6,823 325.7,815 349.4,802.4 351.5,797 329.4,797.8 307.7,801.7 302.4,808.6 275.1,820.3 	"/>
	<polygon class="st27" points="206.5,790.7 210.5,805.3 220.9,818.5 230,809.1 257.9,796.9 234.8,795 	"/>
	<polygon class="st28" points="255.6,797 262.8,802.5 271.4,815.7 274.5,826.9 306.3,812 312.5,803 337.8,798.1 307.8,799.2 
		277.7,797 	"/>
	<polygon class="st29" points="241.5,803.5 239.1,836.8 250.3,874.4 254.2,895 239.1,875.8 213.1,838.5 227.8,835.7 202.7,818.7 
		207.8,803.5 207.8,797.4 220.4,805.2 220.4,813 226.1,811.3 	"/>
	<polygon class="st30" points="244.2,802.9 257.9,796.9 262.8,802.5 267.8,810.1 257.9,812 253.3,812 247.6,809.2 	"/>
	<path class="st31" d="M351.5,797l23.3-0.9l40.4-4l24.1-3.7l28-8l16.7-6.9l18-8.2l-0.5,12.8c-0.5,12.7-2.5,25.3-6.1,37.5l-5.1,17.4
		c-2.3,8-6,15.5-10.8,22.5l0,0c-8.6,12.4-19.9,23-33.2,31.1l0,0c-19.8,12.1-41.9,20.6-65.1,25.1l-18.8,3.7l-60.8-6.6l-43.7-9.2
		l24.4-51.7l16.8-8.2l-16.8-7.4l28.2-9.1l38.9-20.6L351.5,797z"/>
	<polygon class="st32" points="308.7,832.9 324,834.8 337.8,834.8 351.5,833.9 351.5,839.5 337.8,840.2 323.5,839.5 308.7,836.5 	
		"/>
	<path class="st31" d="M157.6,848.5c2.4,7.4,7.2,14,13.8,18.8l11.1,8.2c10.6,7,24.8,9.3,37.4,12.3l34.4,11.1L215,836.6l15-3
		l-25.8-17.8l5.2-15.9l-3-9.2l-37.9-8l-18.1-6.5l-23.5-9.9l6.2,24.3l11.4,33l11.8,21.1L157.6,848.5z"/>
	<path class="st29" d="M308.7,836.5v20l0,0c1.7,5.6,5.8,10.4,11.3,13.2l0,0c2.3,1.2,5,1.6,7.6,1.2l12.5-2c4.6-0.7,8.4-3.5,10.4-7.4
		l0,0c0.7-1.4,1.1-2.9,1.1-4.5v-17.6l-13.7,0.6l-14.3-0.6L308.7,836.5z"/>
	<polygon class="st33" points="259.9,812.2 266.5,810.7 261.4,836.5 259.8,834.1 258.5,820.7 	"/>
	<polyline class="st33" points="252.1,873.5 257.9,879.6 259.2,880.9 258.5,895 257.9,898.4 255.7,898.4 252.1,874 	"/>
	<polygon class="st33" points="243.2,803.5 239.1,835 252.1,873.5 252.1,856.1 249.2,837.2 251.5,821.1 250.8,811.1 248.8,810.7 
		246.5,809.1 	"/>
	<polygon class="st30" points="249.6,809.4 250.4,822.1 249.3,839.8 248.3,843.6 253.3,874.1 257.9,878.3 262.3,880.9 267.5,873.1 
		264.7,857 259.5,834 258.3,820.4 260.1,811.7 255.5,811.9 	"/>
</g>
<ellipse class="st34" cx="301.9" cy="937.4" rx="193.3" ry="20"/>
<ellipse class="st34" cx="579" cy="936.1" rx="113.8" ry="16.1"/>
</svg>
