<?xml version="1.0" encoding="utf-8"?>
<!-- Generator: Adobe Illustrator 27.0.1, SVG Export Plug-In . SVG Version: 6.00 Build 0)  -->
<svg version="1.1" id="Layer_1" xmlns="http://www.w3.org/2000/svg" xmlns:xlink="http://www.w3.org/1999/xlink" x="0px" y="0px"
	 viewBox="0 0 1366 768" style="enable-background:new 0 0 1366 768;" xml:space="preserve">
<style type="text/css">
	.st0{fill:#FBB03B;}
	.st1{opacity:0.1;}
	.st2{fill:#E84E1B;}
	.st3{fill:#F8B133;}
	.st4{fill:#F29100;}
	.st5{fill:#FFFFFF;stroke:#1D1D1B;stroke-miterlimit:10;}
	.st6{fill:#EF8000;}
	.st7{fill:#009540;}
	.st8{fill:#1D1D1B;}
	.st9{fill:none;stroke:#1D1D1B;stroke-width:0.75;stroke-miterlimit:10;}
	.st10{fill:#EB6907;}
</style>
<g>
	<rect x="-21.5" y="-22.5" class="st0" width="1413" height="815"/>
	<path d="M1391-22v814H-21V-22H1391 M1392-23H-22v816h1414V-23L1392-23z"/>
</g>
<g class="st1">
	<g>
		<ellipse class="st2" cx="715.6" cy="369.7" rx="280.4" ry="274.3"/>
		<path class="st2" d="M715.6,647c-110.3,0.3-216.8-69-258.9-171.2C379.4,292,518.8,93.7,715.6,92.7
			c152.8-2.3,286.7,122.4,285.8,277C1002.4,524.5,868.6,649.3,715.6,647L715.6,647z M715.6,641c108,0.3,212.3-67.4,253.7-167.4
			c76-180.1-60.9-374.4-253.7-375.3C565.9,96,434.4,218.1,435.4,369.8C434.5,521.4,566,643.3,715.6,641L715.6,641z"/>
	</g>
	<ellipse class="st3" cx="715.6" cy="369.7" rx="272.8" ry="266.6"/>
	<path class="st4" d="M854.5,142.5l-78.8,110.2c-4.9,6.8-7.8,15.3-8.3,24l-0.1,1.7c-0.7,11.9,9.7,18.5,17.9,11.3l0,0
		c5.5-4.8,10-11.1,13.2-18.4L854.5,142.5z"/>
	<path class="st4" d="M951.5,235.9l-125,49.3c-7.7,3-14.7,8.6-19.7,15.6l-1,1.4c-6.9,9.6-1.7,20.9,9,19.4l0,0c7.2-1,14.4-3.8,21-8.2
		L951.5,235.9z"/>
	<path class="st4" d="M961.9,260.3l-123.1,39.5c-7.6,2.4-15.2,6.9-21.6,12.7l-1.2,1.1c-8.7,7.9-7.2,17.2,2.6,16.1l0,0
		c6.6-0.8,13.7-3,20.6-6.6L961.9,260.3z"/>
	<path class="st4" d="M986.1,344l-128.6-17.7c-7.9-1.1-16.7-0.2-24.8,2.4l-1.6,0.5c-11.1,3.6-13.4,13.2-4,16.5l0,0
		c6.3,2.2,13.7,3.3,21.5,3L986.1,344z"/>
	<path class="st4" d="M982.1,373l-125.9-38c-7.8-2.3-16.6-2.6-24.9-0.9l-1.6,0.3c-11.4,2.5-14.8,12.8-5.8,17.8l0,0
		c6,3.4,13.3,5.6,21.1,6.4L982.1,373z"/>
	<path class="st4" d="M974.6,400l-123.3-44c-7.6-2.7-16.4-3.6-24.8-2.4l-1.6,0.2c-11.6,1.6-15.6,11.2-6.9,16.6l0,0
		c5.8,3.6,12.9,6.1,20.6,7.4L974.6,400z"/>
	<path class="st4" d="M967,461.8l-113.4-64.2c-7-4-15.5-6.4-24-6.9l-1.6-0.1c-11.6-0.7-17.2,7.4-9.7,14l0,0
		c5.1,4.4,11.6,8.1,19,10.8L967,461.8z"/>
	<path class="st4" d="M958.4,475.6L845,411.4c-7-4-15.5-6.4-24-6.9l-1.6-0.1c-11.6-0.7-17.2,7.4-9.7,14l0,0
		c5.1,4.4,11.6,8.1,19,10.8L958.4,475.6z"/>
	<path class="st4" d="M951.7,490.1l-113.4-64.2c-7-4-15.5-6.4-24-6.9l-1.6-0.1c-11.6-0.7-17.2,7.4-9.7,14l0,0
		c5.1,4.4,11.6,8.1,19,10.8L951.7,490.1z"/>
	<path class="st4" d="M944.3,503.6l-113.4-64.2c-7-4-15.5-6.4-24-6.9l-1.6-0.1c-11.6-0.7-17.2,7.4-9.7,14l0,0
		c5.1,4.4,11.6,8.1,19,10.8L944.3,503.6z"/>
	<path class="st4" d="M909.5,551.6l-108.7-72.2c-6.7-4.4-15-7.5-23.4-8.6l-1.6-0.2c-11.6-1.5-17.7,6.2-10.6,13.3l0,0
		c4.8,4.8,11,9,18.2,12.1L909.5,551.6z"/>
	<path class="st4" d="M859.5,596.2l-29.7-128.4c-1.8-7.9-5.8-15.9-11.1-22.7l-1-1.3c-7.3-9.2-17-8-16.7,2.2l0,0
		c0.2,6.8,1.9,14.2,5,21.5L859.5,596.2z"/>
	<path class="st4" d="M698.8,633.5l59.4-125.2c3.7-7.7,4.8-16.7,3.2-25.2l-0.3-1.7c-2.2-11.7-15.1-15.8-22.4-7l0,0
		c-4.8,5.9-8.3,13.1-10,21L698.8,633.5z"/>
	<path class="st4" d="M756.7,633.6l-19.2-144.5c-1.2-8.9-5.6-16.8-12.3-22.2l-1.3-1.1c-9.3-7.5-24.4-0.6-25.9,12l0,0
		c-1.1,8.4,0,16.8,3.2,24.2L756.7,633.6z"/>
	<path class="st4" d="M674.9,631.4l11-131.5c0.7-8.1-0.6-17-3.6-25l-0.6-1.6c-4.2-11.1-13.7-12.9-16.5-3.2l0,0
		c-1.9,6.5-2.5,14.1-1.9,22L674.9,631.4z"/>
	<path class="st4" d="M556.3,579.6L667,510.7c6.8-4.2,13.1-10.6,17.7-17.8l0.9-1.4c6.3-10,2.1-18.9-7.3-15.4l0,0
		c-6.3,2.3-12.7,6.3-18.6,11.5L556.3,579.6z"/>
	<path class="st4" d="M587.6,601.6l40.8-125.2c2.5-7.7,3.3-16.7,2.2-25.2l-0.2-1.7c-1.5-11.7-10.4-15.8-15.4-7l0,0
		c-3.3,5.9-5.7,13.1-6.9,21L587.6,601.6z"/>
	<path class="st4" d="M547,572.7l86.7-98.2c5.3-6.1,9.6-13.9,11.9-22.2l0.5-1.6c3.2-11.4-3.3-18.7-11.3-12.7l0,0
		c-5.4,4.1-10.4,9.7-14.5,16.4L547,572.7z"/>
	<path class="st4" d="M528.2,559.2l100.9-83c6.2-5.1,11.6-12.2,15.2-20l0.7-1.5c5-10.7-0.4-19-9.2-14.3l0,0
		c-5.9,3.2-11.8,7.9-16.9,13.9L528.2,559.2z"/>
	<path class="st4" d="M454.1,436l129.1-14.6c8-0.9,16.3-3.9,23.5-8.5l1.4-0.9c9.9-6.3,9.8-16.2-0.1-17.1l0,0
		c-6.7-0.6-14.1,0.2-21.6,2.4L454.1,436z"/>
	<path class="st4" d="M461.2,452.6l129-14.6c8-0.9,16.3-3.9,23.5-8.5l1.4-0.9c9.9-6.3,9.8-16.2-0.1-17.1l0,0
		c-6.7-0.6-14.1,0.2-21.6,2.4L461.2,452.6z"/>
	<path class="st4" d="M461.2,466.6l129-14.6c8-0.9,16.3-3.9,23.5-8.5l1.4-0.9c9.9-6.3,9.8-16.2-0.1-17.1l0,0
		c-6.7-0.6-14.1,0.2-21.6,2.4L461.2,466.6z"/>
	<path class="st4" d="M492,518.8l94.4-90.6c5.8-5.6,10.7-13.1,13.7-21.2l0.6-1.6c4.2-11.1-1.8-18.9-10.2-13.6l0,0
		c-5.7,3.6-11.1,8.8-15.8,15.2L492,518.8z"/>
	<path class="st4" d="M471.8,488.9L596,450.3c7.6-2.4,15.3-6.9,21.5-12.8l1.2-1.1c8.6-8,6.7-17.8-3.2-16.8l0,0
		c-6.7,0.7-13.8,2.9-20.8,6.4L471.8,488.9z"/>
	<path class="st4" d="M441.7,382.7l129.5,9.8c8,0.6,16.7-0.8,24.6-4l1.5-0.6c10.9-4.3,12.6-14.1,3-16.8l0,0
		c-6.5-1.8-13.9-2.4-21.7-1.7L441.7,382.7z"/>
	<path class="st4" d="M447.9,324.4l113.7,63.7c7,3.9,15.5,6.3,24,6.8l1.6,0.1c11.6,0.7,17.2-7.5,9.6-14.1l0,0
		c-5.1-4.4-11.7-8.1-19-10.7L447.9,324.4z"/>
	<path class="st4" d="M444.5,367l128-22c7.9-1.4,16-4.8,23-9.8l1.3-1c9.5-6.8,8.9-16.7-1.1-17.1l0,0c-6.7-0.2-14.1,1-21.4,3.7
		L444.5,367z"/>
	<path class="st4" d="M466.4,268.5L589.7,310c7.6,2.6,16.4,3.3,24.8,2.2l1.6-0.2c11.6-1.5,15.6-10.6,6.9-15.6l0,0
		c-5.8-3.4-12.9-5.8-20.6-7L466.4,268.5z"/>
	<path class="st4" d="M503.1,217.5L549,340.9c2.8,7.6,7.8,15,13.9,21l1.2,1.2c8.4,8.2,17.9,5.6,16.3-4.4l0,0
		c-1.1-6.7-3.7-13.8-7.7-20.7L503.1,217.5z"/>
	<path class="st4" d="M571.3,150.8l23.6,129.7c1.5,8,5,16.2,10,23.2l1,1.4c6.9,9.6,16.6,8.8,16.8-1.4l0,0c0.1-6.8-1.2-14.3-3.9-21.7
		L571.3,150.8z"/>
	<path class="st4" d="M532.3,186.6L632.9,270c6.2,5.1,14.1,9.1,22.4,11.1l1.6,0.4c11.3,2.8,18.3-4.2,11.9-12.1l0,0
		c-4.3-5.3-10-10.1-16.8-14L532.3,186.6z"/>
	<path class="st4" d="M578.5,140.7l55,119.5c3.4,7.4,8.9,14.4,15.5,19.9l1.3,1.1c9,7.5,18.3,4.2,15.9-5.6l0,0
		c-1.6-6.6-4.7-13.5-9.2-20L578.5,140.7z"/>
	<path class="st4" d="M721.4,102.8l-9.8,131.5c-0.6,8.1,0.8,17,3.9,25l0.6,1.6c4.3,11,13.9,12.8,16.6,3l0,0c1.8-6.6,2.4-14.1,1.7-22
		L721.4,102.8z"/>
	<path class="st4" d="M747.9,102.8l-17.3,130.7c-1.1,8.1-0.2,17,2.4,25.2l0.5,1.6c3.6,11.3,13.1,13.6,16.4,4l0,0
		c2.2-6.4,3.2-14,2.9-21.9L747.9,102.8z"/>
	<path class="st4" d="M650.5,111.8l53.6,161.6c3.3,10,8.9,20.3,15.9,29.2l1.3,1.7c9.5,12.2,19.9,11.9,17.9-0.6l0,0
		c-1.3-8.4-4.4-17.7-9-27.1L650.5,111.8z"/>
	<path class="st4" d="M698.8,103.9L625.5,296c-4.5,11.8-7.6,25.9-8.8,39.7l-0.2,2.7c-1.6,18.9,6.1,26.9,13.3,13.8l0,0
		c4.8-8.8,9.1-19.9,12.3-32.2L698.8,103.9z"/>
	<path class="st5" d="M642,220.7c-27.8,7-57.9,14.6-85.2,40.2c-20.4,19.2-32.7,42.3-49.2,73.1c-8.7,16.3-13.1,24.5-15.6,34.1
		c-1.9,7.2-7.4,31.1,9.6,86.5c12.5,40.8,18.7,61.2,34.8,78c13.6,14.3,29.8,22.6,82.8,35.3c83.4,20,125.1,30.1,163.2,20.7
		c18.8-4.6,72.3-17.7,103.2-65.8c21.7-33.8,21.7-68.2,21.6-115.8c0-25.1-0.5-61.7-19.2-102.4c-6.3-13.6-13.6-29.5-28.8-45.1
		c-30.2-31-68.2-36.8-106.8-42.7c-28.3-4.3-49.5-4.3-59-3.8C668.3,214.3,649.3,218.8,642,220.7z"/>
	<path class="st6" d="M626.7,230.2c-33.8,5.6-56.8,26.7-65.4,34.7c-2.5,2.4-13.3,12.7-24,29.3c-14.5,22.3-19.7,41.8-27,69.6
		c-7.8,29.8-11.7,44.7-10.6,63.1c1.6,27,11.1,46.7,16.8,58.3c5.5,11.3,16.3,32.7,38.5,51.2c12.5,10.4,26.4,18.1,48.3,25.8
		c25.4,8.9,71.1,21.3,140,18.6c55.3-2.2,83-3.3,108.5-24c23.2-18.7,32.2-42.8,40.9-65.9c19.8-52.5,13.6-98.9,10.3-121.3
		c-2.9-20.2-6.1-41.8-19.5-66.9c-6.6-12.3-24.4-44.5-60.9-63.5c-32.7-17.1-65.3-15.6-94.7-14.4c-21.3,0.9-34,4.3-70.6,4.8
		C636.2,229.9,635.6,228.8,626.7,230.2z"/>
	<path class="st7" d="M700.3,138.2l-4.8,4.2c-0.2,0.2-0.2,0.4-0.2,0.6l7.8,21.9c0,0.1,0,0.1,0,0.2l0.8,19.4V203v0.1l-1.7,7.3
		c-0.1,0.4,0.2,0.7,0.5,0.7h5.4h3.9c0.3,0,0.6-0.3,0.6-0.6v-21.3l-0.5-14.8c0,0,0,0,0-0.1l-4.2-12.7l-1.3-4.7l-1-4.7
		c0,0-1.7-4.6-1.7-4.7l-2.9-9.3C701,138,700.6,137.9,700.3,138.2z"/>
	<path class="st7" d="M712.8,189.2l5.6-2.7c9.1-4.4,17.4-10.3,24.4-17.7l0,0c9.7-10,22.2-16.7,35.8-19.1l4.1-0.7
		c10.1-1.8,20.5-1.2,30.3,1.9l3.5,1.1c12.1,3.7,23.3,10,32.9,18.3l0,0c8,7,15.2,14.9,21.4,23.6l14.8,20.8l15,34.4l-37.2-21.5
		l-35.6-21.8l-37-14.3l-32.7-7.5l-11.2-0.3c-3.1-0.1-6.3,0.4-9.2,1.4l-23.2,8L712.8,189.2z"/>
	<g>
		<path class="st8" d="M712.5,189l19.6-9.4c2.3-3.3,5.8-8,8.5-11.7c9-12,23.2-20,38.1-21.6c2.2-0.3,5.1-0.8,7.3-1
			c5-0.5,10.1-0.3,15.1,0.5c4.3,0.6,10.1,2.6,14.4,3.6c7.2,1.8,14.4,4.3,20.7,8.4c4.2,2.6,8,6,11.7,9.2c2.1,1.9,12.1,10.3,13.8,12.3
			c1.8,2,4.9,6.8,6.6,9c2.7,3.9,10.1,14.2,12.8,17.9c4.3,6,7.4,12.8,10.1,19.7l11.3,27.1l0.5,1.1l-1-0.6c-4-2.4-8-4.8-12-7.2
			c-10.7-6.5-25.1-15.4-35.7-22.1c-15.9-7.7-36.1-17.3-52.9-25.1c-5.3-2.5-13.5-6.3-17.3-8.2c-6-1.4-14.7-3.5-20.6-5
			c-5.7-0.5-13.9-1.3-20.4-2.1c0.6-0.2-22.5,7.1-22.2,7l-7.9,3.3l-0.5,0.2C712.4,192.4,712.4,190.7,712.5,189L712.5,189z
			 M713.1,189.4c0,1.4,0.1,2.7,0.1,4.1l-0.5-0.3l7.9-3.3c0.2-0.1,22.3-7.1,22.5-7.1c6.9-0.1,13.9,0,20.8,0.1
			c6.1,1.1,14.8,2.7,21,3.9c6.1,2.6,12.2,5.3,18.3,8.1c17.3,7.8,36.2,17.1,53.1,25.9c10.3,6.9,24.4,16.6,34.6,23.7
			c3.8,2.7,7.6,5.4,11.4,8.1l-0.6,0.5l-12.1-26.7c-2.9-6.7-6.1-13.2-10.4-19.1c-2.7-3.6-10.2-13.9-13-17.7l-4.4-5.9
			c-1.4-2-2.9-3.6-4.8-5.1l-11.2-9.5c-3.7-3.2-7.2-6.3-11.4-8.8c-6.1-3.9-12.9-6.2-19.9-7.9c-4.1-1-10-2.9-14.1-3.5
			c-4.7-0.8-9.5-0.9-14.2-0.4c-4.7,0.6-9.7,1.1-14.3,2.2c-11.6,2.7-22.2,9.3-30,18.3c-3.2,3.7-6.4,7.5-9.7,11.2
			C732.4,180.3,713.2,189.4,713.1,189.4L713.1,189.4z"/>
	</g>
	<path class="st9" d="M768.3,164.7c7.4-1.7,19.5-3.5,33.8-0.8c18.3,3.4,30.5,12.3,39.4,18.8c7.3,5.3,17.5,13.9,27.4,27"/>
	<g>
		<path class="st8" d="M693.1,142.2c2.7-2.8,5.5-5.6,8.3-8.4l0.3,0.7c5.9,11.7,10.4,24.3,11.6,37.4c0.4,4.4,0.4,8.8,0,13.1v28v0.5
			h-0.5h-14.4h-0.6c0.5-3.2,1.7-6.3,2.6-9.4c1.8-5.7,2.1-11.6,1.8-17.6c-0.4-9-1.6-18-3.9-26.7C696.8,154,694.7,147.9,693.1,142.2
			L693.1,142.2z M694.1,142.4c1.6,4.2,3.2,8.4,4.7,12.6c3.4,10.1,5.4,20.8,5.9,31.5c0.6,9.2-0.5,18.9-5.8,26.7l-0.5-0.7h14.4
			l-0.5,0.5v-28c-0.5-4.3-0.9-8.6-1.5-12.8s-1.3-8.5-2.3-12.6c-1.8-8.5-4.9-16.5-7.7-24.7l0.8,0.2
			C699.1,137.5,696.6,139.9,694.1,142.4L694.1,142.4z"/>
	</g>
	<path class="st10" d="M828.2,252.1c-29.6-16.4-31.3-17.4-35.9-18.6c-6.8-1.9-15.8-1.9-33.7-2.1c-17.8-0.2-26.7-0.2-27.7,3.1
		c-1.2,3.8,7.7,10,23.9,20.7c37,24.4,55.8,36.6,72.2,42.2c11.2,3.8,40.9,13.7,46.2,5c4.6-7.5-9.8-27.1-24.1-38.2
		C847,262.5,846.4,262.2,828.2,252.1z"/>
	<g>
		<g>
			<path class="st10" d="M795.6,565.8c3.2,0,3.2-5,0-5C792.3,560.8,792.3,565.8,795.6,565.8L795.6,565.8z"/>
		</g>
	</g>
	<g>
		<g>
			<path class="st10" d="M810.9,566.9c3.2,0,3.2-5,0-5C807.6,561.9,807.6,566.9,810.9,566.9L810.9,566.9z"/>
		</g>
	</g>
	<g>
		<g>
			<path class="st10" d="M833.3,559.6c3.2,0,3.2-5,0-5S830.1,559.6,833.3,559.6L833.3,559.6z"/>
		</g>
	</g>
	<g>
		<g>
			<path class="st10" d="M868,523.3c3.2,0,3.2-5,0-5S864.8,523.3,868,523.3L868,523.3z"/>
		</g>
	</g>
	<g>
		<g>
			<path class="st10" d="M889.4,442.5c3.2,0,3.2-5,0-5S886.2,442.5,889.4,442.5L889.4,442.5z"/>
		</g>
	</g>
	<g>
		<g>
			<path class="st10" d="M894.5,395.8c3.2,0,3.2-5,0-5S891.3,395.8,894.5,395.8L894.5,395.8z"/>
		</g>
	</g>
	<g>
		<g>
			<path class="st10" d="M877.2,485c3.2,0,3.2-5,0-5S874,485,877.2,485L877.2,485z"/>
		</g>
	</g>
	<g>
		<g>
			<path class="st10" d="M831.3,501.6c3.2,0,3.2-5,0-5S828.1,501.6,831.3,501.6L831.3,501.6z"/>
		</g>
	</g>
	<g>
		<g>
			<path class="st10" d="M844.5,536.8c3.2,0,3.2-5,0-5S841.3,536.8,844.5,536.8L844.5,536.8z"/>
		</g>
	</g>
	<g>
		<g>
			<path class="st10" d="M853.7,501.6c3.2,0,3.2-5,0-5S850.5,501.6,853.7,501.6L853.7,501.6z"/>
		</g>
	</g>
	<g>
		<g>
			<path class="st10" d="M871.1,465.3c3.2,0,3.2-5,0-5C867.9,460.3,867.9,465.3,871.1,465.3L871.1,465.3z"/>
		</g>
	</g>
	<g>
		<g>
			<path class="st10" d="M850.7,475.6c3.2,0,3.2-5,0-5C847.4,470.6,847.4,475.6,850.7,475.6L850.7,475.6z"/>
		</g>
	</g>
	<g>
		<g>
			<path class="st10" d="M871.1,429c3.2,0,3.2-5,0-5C867.9,424,867.9,429,871.1,429L871.1,429z"/>
		</g>
	</g>
	<g>
		<g>
			<path class="st10" d="M892.5,418.6c3.2,0,3.2-5,0-5S889.3,418.6,892.5,418.6L892.5,418.6z"/>
		</g>
	</g>
	<g>
		<g>
			<path class="st10" d="M891.5,470.4c3.2,0,3.2-5,0-5S888.3,470.4,891.5,470.4L891.5,470.4z"/>
		</g>
	</g>
	<g>
		<g>
			<path class="st10" d="M879.2,506.7c3.2,0,3.2-5,0-5S876,506.7,879.2,506.7L879.2,506.7z"/>
		</g>
	</g>
	<g>
		<g>
			<path class="st10" d="M815.4,478.1c0.6,0,1.6-0.2,1.9-0.8c0.3-0.6-0.2-0.8-0.8-0.8s-1.6,0.2-1.9,0.8
				C814.3,477.8,814.9,478.1,815.4,478.1L815.4,478.1z"/>
		</g>
	</g>
	<g>
		<g>
			<path class="st10" d="M798.7,451.9c0.6,0,1.5-0.1,2-0.5c0.4-0.3,0.5-0.6-0.2-0.6c-0.6,0-1.5,0.1-2,0.5
				C798.2,451.6,798.1,451.9,798.7,451.9L798.7,451.9z"/>
		</g>
	</g>
	<g>
		<g>
			<path class="st10" d="M808.2,464.5c0.5,0,1.6-0.2,1.9-0.7c0.3-0.5-0.3-0.6-0.7-0.6c-0.5,0-1.6,0.2-1.9,0.7
				C807.2,464.4,807.8,464.5,808.2,464.5L808.2,464.5z"/>
		</g>
	</g>
	<g>
		<g>
			<path class="st10" d="M835.8,458.5c0.6,0,1.6-0.2,1.9-0.8c0.3-0.6-0.2-1-0.8-1s-1.6,0.2-1.9,0.8
				C834.7,458.1,835.3,458.5,835.8,458.5L835.8,458.5z"/>
		</g>
	</g>
	<g>
		<g>
			<path class="st10" d="M814.3,458.3c0.5,0,1.6-0.2,1.9-0.7c0.3-0.5-0.3-0.6-0.7-0.6c-0.5,0-1.6,0.2-1.9,0.7
				C813.3,458.2,813.9,458.3,814.3,458.3L814.3,458.3z"/>
		</g>
	</g>
	<g>
		<g>
			<path class="st10" d="M831.7,438.7c0.6,0,1.6-0.2,1.9-0.8c0.3-0.6-0.2-0.9-0.8-0.9s-1.6,0.2-1.9,0.8
				C830.7,438.4,831.2,438.7,831.7,438.7L831.7,438.7z"/>
		</g>
	</g>
	<g>
		<g>
			<path class="st10" d="M845.4,445.5c0,0.6,0.4,1.1,0.9,1.4c0.4,0.2,0.7,0.4,1.1,0.5c0.6,0.1,1.2,0,1.8-0.1
				c0.4-0.1,0.7-0.2,1.1-0.4c0.2-0.1,0.4-0.3,0.6-0.4c0.1-0.1,0.4-0.3,0.3-0.6c-0.1-0.2-0.4-0.3-0.5-0.3c-0.4,0-0.7,0-1.1,0.1
				c-0.3,0.1-0.7,0.2-1,0.5l-0.1,0.1c-0.1,0.1,0.3-0.2,0.2-0.1h-0.1c-0.2,0.1,0.4-0.2,0.2-0.1c0,0,0,0-0.1,0
				c-0.1,0.1,0.5-0.1,0.3-0.1c-0.2,0.1,0.4-0.1,0.3-0.1h-0.1c-0.2,0,0.2,0,0.2,0c-0.1,0-0.1,0-0.2,0c0.4,0,0.3,0,0.2,0h-0.1
				c-0.1,0-0.1,0-0.2,0c0.1,0,0.2,0,0.3,0.1c-0.2-0.1-0.4-0.1-0.5-0.2c0.1,0,0.1,0.1,0.2,0.1c-0.2-0.1-0.5-0.3-0.6-0.6
				c0,0.1,0.1,0.1,0.1,0.2c-0.1-0.2-0.2-0.5-0.2-0.7s-0.4-0.3-0.5-0.3c-0.3-0.1-0.8,0-1.1,0.1s-0.7,0.2-1,0.5
				c-0.1,0.1-0.1,0.1-0.2,0.2C845.5,445.3,845.4,445.4,845.4,445.5L845.4,445.5z"/>
		</g>
	</g>
	<g>
		<g>
			<path class="st10" d="M850.2,443.2c-0.3,0-0.7,0-1,0c-0.2,0-0.4,0-0.6,0c-0.2,0-0.4,0.1-0.6,0.2c-0.2,0.1-0.3,0.2-0.5,0.3
				c-0.1,0.1-0.2,0.2-0.3,0.3c0,0.1-0.1,0.2-0.1,0.2c0,0.2,0,0.3,0.1,0.4s0.1,0.1,0.2,0.2c0.2,0.1,0.4,0.1,0.6,0.2c0.3,0,0.7,0,1,0
				c0.2,0,0.4,0,0.6,0c0.2,0,0.4-0.1,0.6-0.2c0.2-0.1,0.3-0.2,0.5-0.3c0.1-0.1,0.2-0.2,0.3-0.3c0-0.1,0.1-0.2,0.1-0.2
				c0-0.2,0-0.3-0.1-0.4s-0.1-0.1-0.2-0.2C850.6,443.3,850.4,443.2,850.2,443.2L850.2,443.2z"/>
		</g>
	</g>
	<g>
		<g>
			<path class="st10" d="M851.8,421.7c-0.4,0.2-0.7,0.5-0.8,0.9c-0.1,0.3-0.1,0.6,0.1,0.9c0.1,0.1,0.2,0.3,0.4,0.4
				c0.2,0.2,0.5,0.2,0.8,0.2c0.2,0,0.3,0,0.5,0c0.4-0.1,0.9-0.1,1.3-0.3c0.4-0.2,0.8-0.3,1.2-0.6c0.3-0.3,0.6-0.7,0.5-1.2
				c0-0.1-0.1-0.1-0.2-0.1c-0.1,0-0.2-0.1-0.3-0.1c-0.3,0-0.7,0.1-1.1,0.2c-0.3,0.1-0.7,0.2-1,0.4c-0.1,0.1-0.4,0.2-0.3,0.4
				c0,0.1,0,0.2,0,0.3V423c0,0.2-0.1,0.3-0.2,0.5l0.1-0.1c-0.1,0.1-0.1,0.1-0.2,0.2c0.1,0,0.1-0.1,0.2-0.1l-0.1,0.1
				c0.1,0,0.2-0.1,0.3-0.1h-0.1c0.3-0.1,0.4-0.2,0.3-0.1c-0.1,0,0,0,0.3-0.1c-0.2,0,0.5-0.1,0.3-0.1c0.3,0,0.4-0.1,0.3,0l0,0
				c0.1,0,0.2,0,0.3,0h-0.1c0.1,0,0.2,0,0.2,0c-0.1,0-0.1,0-0.2,0c0.1,0,0.1,0,0.2,0.1c-0.1-0.1-0.3-0.1-0.4-0.3l0.1,0.1
				c-0.2-0.3-0.3-0.6-0.2-0.9v0.1c0-0.2,0.1-0.3,0.2-0.5l-0.1,0.1c0-0.1,0.1-0.1,0.2-0.1c-0.1,0-0.1,0.1-0.2,0.1c0,0,0,0,0.1,0
				c0.1-0.1,0.4-0.2,0.3-0.4c0-0.2-0.4-0.2-0.5-0.2c-0.4,0-0.7,0.1-1.1,0.2C852.5,421.4,852.1,421.5,851.8,421.7L851.8,421.7z"/>
		</g>
	</g>
	<g>
		<g>
			<path class="st10" d="M871,395.1c-0.4-0.2-0.8-0.4-1.3-0.3c-0.6,0-1.2,0.3-1.5,0.7c-0.3,0.4-0.4,0.9-0.3,1.5
				c0.1,0.4,0.3,0.8,0.7,1.1c0.8,0.6,1.9,0.4,2.6-0.1c0.2-0.1,0.4-0.3,0.6-0.5c0.1-0.1,0.2-0.3,0.3-0.5c0.2-0.3,0.2-0.5,0.3-0.8
				c0.1-0.5,0.1-1.1,0-1.6c0-0.3-0.2-0.5-0.4-0.7c-0.2-0.1-0.4-0.2-0.6-0.4c-0.3-0.2-0.7-0.3-1.1-0.3c-0.9-0.2-1.8,0-2.6,0.3
				c-0.1,0.1-0.2,0.1-0.4,0.2c-0.1,0.1-0.3,0.2-0.3,0.4c-0.1,0.1-0.2,0.3-0.2,0.4s0,0.1-0.1,0.2c0,0.1,0,0.3-0.1,0.4
				c0,0.4,0,0.8,0.1,1.1c0.1,0.4,0.2,0.7,0.4,1c0.2,0.4,0.5,0.6,0.7,0.9c0.2,0.2,0.7,0.3,1,0.2c0.4,0,0.8-0.2,1.1-0.4
				c0.2-0.2,0.5-0.5,0.5-0.8c0-0.1,0-0.2,0-0.3c-0.1-0.2-0.2-0.4-0.3-0.5l0,0c0.1,0.1,0.1,0.1,0.2,0.2c-0.2-0.2-0.4-0.5-0.6-0.8
				c0,0.1,0.1,0.2,0.1,0.3c-0.2-0.4-0.3-0.7-0.3-1.1c0,0.1,0,0.2,0,0.3c0-0.3,0-0.7,0.1-1c-0.3,0.3-0.5,0.7-0.8,1c0,0,0.1,0,0.1-0.1
				c-0.1,0-0.3,0.1-0.4,0.1c0.1-0.1,0.3-0.1,0.4-0.1c-0.1,0-0.3,0-0.4,0.1c0.2,0,0.4,0,0.6,0c-0.1,0-0.2,0-0.4,0
				c0.2,0,0.4,0,0.6,0.1c-0.1,0-0.2-0.1-0.3-0.1c0.2,0.1,0.4,0.1,0.6,0.2c-0.1,0-0.2-0.1-0.3-0.1c0.1,0.1,0.2,0.1,0.4,0.2
				c-0.1-0.2-0.2-0.3-0.3-0.5c0,0.2,0.1,0.4,0.1,0.5c0-0.1,0-0.2,0-0.3c0,0.4,0,0.7-0.1,1.1c0-0.1,0.1-0.2,0.1-0.3
				c0,0.2-0.1,0.3-0.2,0.4c0.1-0.1,0.1-0.2,0.2-0.3c0,0.1-0.1,0.1-0.2,0.2c0.1-0.1,0.2-0.2,0.2-0.2c-0.1,0.1-0.1,0.1-0.2,0.1
				c0.1-0.1,0.2-0.1,0.3-0.2c-0.1,0-0.1,0.1-0.2,0.1c0.1,0,0.3-0.1,0.4-0.1h-0.1c0.1,0,0.3,0,0.4-0.1H870c0.1,0,0.2,0,0.4,0h-0.1
				c0.1,0,0.2,0.1,0.3,0.1h-0.1c0.1,0,0.2,0.1,0.3,0.1l-0.1-0.1c0.1,0.1,0.1,0.1,0.2,0.2c-0.1-0.1-0.1-0.1-0.2-0.2
				c0,0.1,0.1,0.2,0.1,0.3c-0.1-0.1-0.1-0.3-0.1-0.5c0,0.1,0,0.2,0,0.3c0-0.1,0-0.2,0-0.3c0,0.1-0.1,0.2-0.1,0.3
				c0-0.1,0-0.1,0.1-0.1c-0.1,0.1-0.1,0.2-0.2,0.3c0,0,0,0,0-0.1c-0.1,0.1-0.2,0.2-0.2,0.2l0,0c-0.1,0.1-0.2,0.1-0.3,0.2l0,0
				c-0.1,0-0.3,0.1-0.4,0.1l0,0c-0.1,0-0.3,0-0.4,0.1c0,0,0,0,0.1,0c-0.1,0-0.2,0-0.4,0c0,0,0,0,0.1,0c-0.1,0-0.2-0.1-0.3-0.1h0.1
				c-0.1,0-0.2-0.1-0.3-0.1c0,0,0,0,0.1,0c0.3,0.2,0.6,0.3,1,0.2c0.4,0,0.8-0.2,1.1-0.4c0.2-0.2,0.5-0.5,0.5-0.8
				C871.4,395.5,871.3,395.2,871,395.1L871,395.1z"/>
		</g>
	</g>
	<g>
		<g>
			<path class="st10" d="M846,412.7c0.6,0,1.6-0.2,1.9-0.8c0.3-0.6-0.3-0.7-0.8-0.7c-0.6,0-1.6,0.2-1.9,0.8
				C845,412.5,845.5,412.7,846,412.7L846,412.7z"/>
		</g>
	</g>
	<g>
		<g>
			<path class="st10" d="M817.5,531c0.6,0,1.6-0.2,1.9-0.8c0.3-0.6-0.2-0.9-0.8-0.9s-1.6,0.2-1.9,0.8
				C816.4,530.7,816.9,531,817.5,531L817.5,531z"/>
		</g>
	</g>
	<g>
		<g>
			<path class="st10" d="M790.9,487.5c0.6,0,1.6-0.2,1.9-0.8c0.3-0.6-0.2-0.9-0.8-0.9s-1.6,0.2-1.9,0.8
				C789.8,487.1,790.4,487.5,790.9,487.5L790.9,487.5z"/>
		</g>
	</g>
	<g>
		<g>
			<path class="st10" d="M831.3,477.7c3.2,0,3.2-5,0-5S828.1,477.7,831.3,477.7L831.3,477.7z"/>
		</g>
	</g>
	<g>
		<g>
			<path class="st10" d="M830.3,545.1c3.2,0,3.2-5,0-5C827,540.1,827,545.1,830.3,545.1L830.3,545.1z"/>
		</g>
	</g>
	<g>
		<g>
			<path class="st10" d="M855.8,546.1c3.2,0,3.2-5,0-5C852.5,541.1,852.5,546.1,855.8,546.1L855.8,546.1z"/>
		</g>
	</g>
	<g>
		<g>
			<path class="st10" d="M808.7,509.5c1.7,0,2.2-2.3,0.2-2.3C807.2,507.3,806.8,509.5,808.7,509.5L808.7,509.5z"/>
		</g>
	</g>
	<g>
		<g>
			<path class="st10" d="M798.2,522c0,0.3,0,0.7,0,1c0,0.1,0,0.3,0.1,0.4c0,0.1,0.1,0.2,0.3,0.3c0.1,0.1,0.3,0.2,0.4,0.2
				c0.2,0.1,0.4,0.1,0.5,0c0.1,0,0.3,0,0.4-0.1c0.3-0.1,0.5-0.2,0.7-0.3c0.1-0.1,0.2-0.2,0.3-0.2c0.1-0.2,0.2-0.3,0.3-0.5
				c0-0.3,0-0.7,0-1c0-0.1,0-0.3-0.1-0.4c0-0.1-0.1-0.2-0.3-0.3c-0.1-0.1-0.3-0.2-0.4-0.2c-0.2-0.1-0.4-0.1-0.5,0
				c-0.1,0-0.3,0-0.4,0.1c-0.3,0.1-0.5,0.2-0.7,0.3c-0.1,0.1-0.2,0.2-0.3,0.2C798.3,521.6,798.2,521.8,798.2,522L798.2,522z"/>
		</g>
	</g>
	<g>
		<g>
			<path class="st10" d="M799.2,519.6c-0.7,0.9-1.4,1.9-2.2,2.8c-0.2,0.2-0.4,0.5-0.4,0.8c0,0.2,0,0.5,0.1,0.7
				c0.1,0.4,0.4,0.8,0.7,1.1c1,0.9,2.4,1,3.6,0.5c0.9-0.3,1.7-1.1,1.9-2.1c0.1-0.4,0.1-0.9-0.1-1.2c-0.2-0.5-0.5-0.9-0.9-1.2
				c-0.2-0.2-0.7-0.2-1-0.1c-0.4,0-0.8,0.2-1.1,0.4c-0.2,0.2-0.5,0.4-0.5,0.7s0.1,0.4,0.3,0.6c-0.2-0.2,0,0,0.1,0.1s0.1,0.2,0.2,0.3
				c0-0.1-0.1-0.1-0.1-0.2c0.1,0.3,0.2,0.6,0.2,0.9c0-0.1,0-0.2,0-0.2c0,0.2,0,0.3,0,0.5c0,0.1,0,0.1-0.1,0.2c0,0.1-0.1,0,0,0v0.1
				c0,0.1-0.1,0.1-0.1,0.2c-0.1,0.1,0.1-0.1,0.1-0.1l-0.1,0.1c-0.2,0.2,0.2-0.2,0,0c-0.1,0-0.2,0.1,0,0c0.1-0.1,0.2-0.1,0.1,0h-0.1
				c0,0,0.4-0.1,0.2-0.1c0,0,0.4-0.1,0.2,0c-0.2,0,0.2,0,0.2,0h-0.1c0,0,0.3,0.1,0.1,0h-0.1c-0.1,0,0.2,0.1,0.1,0c0,0-0.1,0-0.1-0.1
				c0,0-0.3-0.1-0.2-0.2c0,0,0.2,0.1,0,0L800,524c-0.1-0.1-0.3-0.3-0.4-0.5c0,0.1,0.1,0.1,0.1,0.2c-0.1-0.2-0.2-0.5-0.2-0.7
				c0,0.1,0,0.2,0,0.2c0-0.1,0-0.1,0-0.2c0,0.1,0,0.1,0.1,0s0.2-0.3,0.3-0.4c0.2-0.3,0.4-0.6,0.6-0.8c0.4-0.6,0.9-1.1,1.3-1.7
				c0.1-0.2,0.1-0.5,0-0.7c-0.2-0.2-0.5-0.3-0.8-0.3C800.4,518.8,799.6,519,799.2,519.6L799.2,519.6z"/>
		</g>
	</g>
	<g>
		<g>
			<path class="st10" d="M820.1,414.2c-0.1,0.1-0.1,0.3-0.2,0.4c0,0,0,0,0,0.1s0,0.2,0,0.3c0,0,0,0,0,0.1s0.1,0.2,0.1,0.3
				c0.1,0.1,0.2,0.2,0.3,0.3c0,0,0.1,0.1,0.2,0.1c0.1,0.1,0.3,0.1,0.4,0.2c0.3,0.1,0.7,0.1,1.1,0.1c0.2,0,0.3-0.1,0.5-0.1h0.1
				c0.3-0.1,0.6-0.2,0.8-0.4c0.2-0.2,0.4-0.3,0.6-0.5c0.1-0.1,0.1-0.3,0.2-0.4c0-0.1,0-0.3,0-0.4s0-0.3-0.1-0.4
				c-0.1-0.2-0.1-0.3-0.2-0.5c-0.1-0.1-0.1-0.2-0.2-0.2c-0.2-0.2-0.5-0.4-0.8-0.5c-0.2-0.1-0.4-0.2-0.6-0.2c-0.2,0-0.5-0.1-0.7-0.1
				c-0.4,0-0.8,0.1-1.1,0.2c-0.2,0.1-0.3,0.2-0.5,0.3c-0.1,0.1-0.2,0.2-0.3,0.3c0,0.1-0.1,0.2-0.1,0.2c0,0.2,0,0.3,0.1,0.4
				c0.2,0.2,0.5,0.3,0.8,0.3c0.1,0,0.1,0,0.2,0c-0.1,0-0.2,0-0.3-0.1c0.2,0,0.3,0.1,0.5,0.1c-0.1,0-0.2-0.1-0.3-0.1
				c0.2,0.1,0.4,0.2,0.5,0.3c-0.1-0.1-0.1-0.1-0.2-0.2c0.1,0.1,0.3,0.3,0.4,0.4c0-0.1-0.1-0.1-0.1-0.2c0.1,0.1,0.1,0.3,0.1,0.4
				c0-0.1,0-0.2,0-0.2c0,0.1,0,0.2,0,0.3c0-0.1,0.1-0.2,0.1-0.2s0,0.1-0.1,0.1c0.1-0.1,0.1-0.2,0.2-0.2l-0.1,0.1
				c0.1-0.1,0.2-0.1,0.3-0.2c0,0-0.1,0-0.1,0.1c0.1-0.1,0.2-0.1,0.3-0.2h-0.1c0.1,0,0.3-0.1,0.4-0.1h-0.1c0.1,0,0.3,0,0.4-0.1h-0.1
				c0.1,0,0.2,0,0.4,0c-0.1,0-0.1,0-0.2,0c0.1,0,0.2,0,0.3,0.1c-0.1,0-0.2,0-0.2-0.1c0.1,0,0.2,0.1,0.3,0.1c-0.1,0-0.1-0.1-0.2-0.1
				c0.1,0.1,0.1,0.1,0.2,0.2l-0.1-0.1c0,0.1,0.1,0.1,0.1,0.2v-0.1c0,0.1,0,0.2,0,0.2v-0.1c0,0.1-0.1,0.2-0.1,0.2s0-0.1,0.1-0.1
				c0.1-0.1,0.1-0.2,0.1-0.4c0-0.1,0-0.2-0.1-0.3c-0.1-0.1-0.2-0.2-0.3-0.2c-0.1-0.1-0.3-0.1-0.5-0.1c-0.4,0-0.8,0-1.1,0.2
				c-0.1,0.1-0.2,0.1-0.3,0.2C820.4,413.8,820.2,414,820.1,414.2L820.1,414.2z"/>
		</g>
	</g>
	<g>
		<g>
			<path class="st10" d="M893.1,378.5c-0.4,0.2-0.7,0.3-0.9,0.6c-0.1,0.1-0.1,0.2-0.1,0.3v0.1c0,0.1,0,0.1,0,0.2l0,0v0.1
				c0,0.1,0.1,0.2,0.2,0.3c0.1,0.2,0.3,0.3,0.5,0.4c0.1,0,0.1,0.1,0.2,0.1c0.1,0,0.2,0.1,0.3,0.1l0,0c0.3,0,0.5,0,0.8,0
				s0.6-0.1,0.9-0.2c0.1,0,0.2-0.1,0.2-0.1s0.1-0.1,0.2-0.1l0,0c0.1-0.1,0.2-0.1,0.3-0.2c0.2-0.2,0.3-0.3,0.4-0.6c0-0.1,0-0.2,0-0.3
				c0-0.1-0.1-0.2-0.2-0.2c-0.1-0.1-0.3-0.1-0.4-0.1c-0.2,0-0.3,0-0.5,0c-0.1,0-0.3,0.1-0.4,0.1c-0.2,0.1-0.5,0.2-0.7,0.3
				c-0.1,0.1-0.2,0.1-0.3,0.2s-0.2,0.2-0.3,0.4v0.1c0-0.1,0.1-0.1,0.1-0.2c0,0,0,0.1-0.1,0.1c0.1-0.1,0.1-0.1,0.2-0.2l0,0
				c0.1-0.1,0.2-0.1,0.3-0.2l0,0c0.1-0.1,0.2-0.1,0.3-0.2l0,0c0.1,0,0.3-0.1,0.4-0.1l0,0c0.1,0,0.3-0.1,0.4-0.1l0,0
				c0.1,0,0.2,0,0.4,0c0,0,0,0-0.1,0c0.1,0,0.2,0,0.3,0h-0.1c0.1,0,0.2,0,0.3,0.1c-0.1,0-0.1,0-0.2-0.1c0.1,0,0.1,0.1,0.2,0.1
				c-0.1-0.1-0.2-0.2-0.3-0.3c0,0.1,0.1,0.1,0.1,0.2c-0.1-0.1-0.1-0.2-0.1-0.3c0,0.1,0,0.1,0,0.2v-0.1c0,0.1-0.1,0.1-0.1,0.2
				c0,0,0,0,0.1-0.1c-0.1,0.1-0.1,0.1-0.2,0.2c0,0,0,0,0.1,0c-0.1,0.1-0.2,0.1-0.3,0.2c0,0,0,0,0.1,0c-0.1,0.1-0.2,0.1-0.3,0.2l0,0
				c0.2-0.1,0.3-0.1,0.5-0.2c0.1-0.1,0.2-0.2,0.3-0.3c0.1-0.1,0.1-0.2,0.1-0.3c0-0.1,0-0.2-0.1-0.2s-0.1-0.1-0.2-0.1
				c-0.2-0.1-0.4-0.1-0.6-0.1c-0.1,0-0.2,0-0.4,0C893.6,378.4,893.3,378.5,893.1,378.5L893.1,378.5z"/>
		</g>
	</g>
	<g>
		<g>
			<path class="st10" d="M893.4,379.5c-0.3,0.3-0.7,0.7-1,1c-0.1,0.1-0.2,0.2-0.2,0.3c-0.1,0.1-0.1,0.2,0,0.3c0,0.1,0.1,0.2,0.2,0.3
				c0.1,0.1,0.2,0.2,0.4,0.2c0.1,0,0.2,0,0.3,0c0.3,0,0.5,0,0.8-0.1c0.1,0,0.3-0.1,0.4-0.1c0.2-0.1,0.4-0.2,0.6-0.4
				c0.3-0.3,0.7-0.7,1-1c0.1-0.1,0.2-0.2,0.2-0.3c0.1-0.1,0.1-0.2,0-0.3c0-0.1-0.1-0.2-0.2-0.3c-0.1-0.1-0.2-0.2-0.4-0.2
				c-0.1,0-0.2,0-0.3,0c-0.3,0-0.5,0-0.8,0.1c-0.1,0-0.3,0.1-0.4,0.1C893.7,379.2,893.5,379.4,893.4,379.5L893.4,379.5z"/>
		</g>
	</g>
	<g>
		<g>
			<path class="st10" d="M874,413.4c1.5-0.2,3.1-1,3.9-2.4c0.6-1,0.9-2.3,0.4-3.4c-0.2-0.4-0.9-0.5-1.3-0.4c-0.9,0.2-1.7,0.5-2.3,1
				c-0.4,0.4-0.8,0.9-1,1.4c-0.4,0.9-0.3,2,0.3,2.8c0.1,0.2,0.6,0.3,0.8,0.3c0.4,0,0.8-0.1,1.1-0.2c0.4-0.2,1.2-0.7,0.8-1.2
				c-0.1-0.1-0.1-0.1-0.1-0.2c0,0.1,0.1,0.1,0.1,0.2c-0.2-0.3-0.3-0.7-0.3-1.1c0,0.1,0,0.1,0,0.2c0-0.4,0.1-0.8,0.2-1.1
				c0,0.1-0.1,0.1-0.1,0.2c0.1-0.2,0.2-0.3,0.2-0.4s0.1-0.1,0.1-0.2c0,0-0.2,0.2-0.1,0.1l0.1-0.1c0.1,0,0.3-0.2,0.1-0.1
				c-0.2,0.2,0,0,0.1,0c0.2-0.1-0.3,0.1-0.2,0.1c0,0,0.1,0,0.1-0.1c0,0-0.4,0.1-0.2,0.1c0.1,0,0.3-0.1-0.2,0
				c-0.4-0.1-0.8-0.3-1.3-0.4c0.1,0.3,0.2,0.7,0.2,1.1c0-0.1,0-0.1,0-0.2c0,0.5-0.1,1-0.3,1.5c0-0.1,0.1-0.1,0.1-0.2
				c-0.1,0.2-0.2,0.5-0.4,0.7l-0.1,0.1c-0.1,0.2,0.2-0.2,0,0c-0.1,0.1-0.2,0.2-0.3,0.3c-0.1,0.1-0.3,0.2,0.1,0l-0.1,0.1l-0.2,0.1
				c0,0,0.4-0.2,0.1-0.1c-0.1,0-0.1,0-0.2,0.1c-0.2,0.1,0.4-0.1,0.1,0c-0.1,0-0.1,0-0.2,0c0.3-0.1,0.4-0.1,0.2,0h-0.1
				c-0.4,0-0.8,0.2-1.1,0.4c-0.2,0.1-0.5,0.4-0.5,0.6C872.7,413.4,873.6,413.4,874,413.4L874,413.4z"/>
		</g>
	</g>
	<g>
		<g>
			<path class="st10" d="M879.7,445.9c0.1-0.2,0.1-0.5-0.1-0.6c-0.1-0.1-0.1-0.1-0.2-0.1c-0.2-0.1-0.4-0.1-0.6-0.1
				c-0.3,0-0.6,0-0.8,0.1c-0.4,0.1-0.8,0.3-1.2,0.6c-0.1,0.1-0.2,0.2-0.3,0.3l-0.1,0.1c-0.1,0.1-0.1,0.2-0.1,0.3c0,0,0,0,0,0.1
				c0,0,0,0,0,0.1s0,0.2,0,0.3c0,0.1,0.1,0.2,0.2,0.3l0.1,0.1c0.1,0,0.1,0.1,0.2,0.1c0.3,0.1,0.5,0.2,0.8,0.2c0.2,0,0.3,0,0.5,0
				c0,0,0,0,0.1,0s0.3,0,0.4-0.1c0.3-0.1,0.6-0.2,0.9-0.4c0.2-0.1,0.3-0.2,0.5-0.4c0.1-0.1,0.3-0.3,0.4-0.5c0.1-0.2,0.2-0.3,0.3-0.5
				s0.2-0.5,0.2-0.7c0-0.1,0-0.2-0.1-0.3c0-0.1-0.1-0.2-0.2-0.2c-0.1-0.1-0.3-0.1-0.4-0.1c-0.2,0-0.4,0-0.5,0
				c-0.4,0.1-0.8,0.2-1.1,0.4c-0.1,0.1-0.2,0.1-0.3,0.2s-0.2,0.3-0.3,0.4c0,0.2-0.1,0.5-0.2,0.7c0-0.1,0.1-0.1,0.1-0.2
				c-0.1,0.2-0.2,0.3-0.3,0.5c0.1-0.1,0.1-0.1,0.2-0.2c-0.1,0.1-0.1,0.1-0.2,0.2c0.1-0.1,0.2-0.1,0.3-0.2c0,0-0.1,0-0.1,0.1
				c0.1-0.1,0.2-0.1,0.3-0.2H878c0.1,0,0.3-0.1,0.4-0.1h-0.1c0.1,0,0.3-0.1,0.4-0.1h-0.1c0.1,0,0.2,0,0.4,0h-0.1c0.1,0,0.2,0,0.3,0
				c-0.1,0-0.1,0-0.2,0c0.1,0,0.2,0.1,0.3,0.1c0,0-0.1,0-0.1-0.1c0.1,0,0.1,0.1,0.2,0.1c0,0-0.1,0-0.1-0.1c0,0.1,0.1,0.1,0.1,0.2
				v-0.1c0,0.1,0,0.1,0,0.2c0-0.1,0-0.1,0-0.1c0,0.1-0.1,0.1-0.1,0.2c0-0.1,0.1-0.1,0.1-0.2c-0.1,0.1-0.1,0.1-0.2,0.2
				c0-0.1,0.1-0.1,0.2-0.1c-0.1,0.1-0.2,0.1-0.3,0.2c0,0,0.1,0,0.1-0.1c-0.1,0.1-0.2,0.1-0.3,0.2c0,0,0,0,0.1,0
				c-0.1,0-0.3,0.1-0.4,0.1l0,0c-0.1,0-0.3,0.1-0.4,0.1l0,0c-0.1,0-0.2,0-0.4,0l0,0c-0.1,0-0.2,0-0.3,0l0,0c-0.1,0-0.2-0.1-0.3-0.1
				l0,0c-0.1,0-0.1-0.1-0.2-0.1l0,0c0-0.1-0.1-0.1-0.1-0.2c0,0,0,0,0,0.1c0-0.1,0-0.1,0-0.2c0,0.1,0,0.1,0,0.1c0,0.1,0,0.2,0.1,0.3
				c0,0.1,0.1,0.2,0.2,0.2c0.1,0.1,0.3,0.1,0.4,0.1c0.2,0,0.4,0,0.5,0c0.4-0.1,0.8-0.2,1.1-0.4C879.3,446.3,879.6,446.2,879.7,445.9
				L879.7,445.9z"/>
		</g>
	</g>
	<g>
		<g>
			<path class="st10" d="M861.7,478.1c0.7,0.6,1.4,1.2,2.2,1.7c0.2,0.1,0.4,0.2,0.6,0.2c0.3,0,0.5,0,0.8-0.1
				c0.4-0.1,0.9-0.3,1.1-0.8c0.7-1.3,1.3-2.6,2-3.9c0.1-0.2,0.1-0.5,0-0.7c-0.2-0.2-0.5-0.3-0.8-0.3c-0.4,0-0.8,0-1.1,0.2
				c-0.3,0.1-0.6,0.3-0.8,0.6c-0.7,1.3-1.3,2.6-2,3.9c0.8-0.2,1.7-0.4,2.5-0.7c-0.7-0.6-1.4-1.2-2.2-1.7c-0.2-0.2-0.7-0.2-1-0.2
				c-0.4,0-0.8,0.2-1.1,0.4c-0.2,0.2-0.5,0.4-0.5,0.7C861.3,477.8,861.5,478,861.7,478.1L861.7,478.1z"/>
		</g>
	</g>
	<g>
		<g>
			<path class="st10" d="M895,455.4c0.6,0,1.6-0.2,1.9-0.8c0.3-0.6-0.2-1-0.8-1s-1.6,0.2-1.9,0.8C893.9,455,894.4,455.4,895,455.4
				L895,455.4z"/>
		</g>
	</g>
	<g>
		<path class="st8" d="M669.8,216.5c-68.7,9.7-123.8,49.6-154.1,112c-5.9,11.8-10.6,24.3-15.3,36.8c-4.6,12.4-8.2,25.1-9.4,38.3
			c-4.6,51.9,16.1,108.7,59.7,139.1c5.3,3.9,11.6,6,17.8,8.1c6.3,2.1,12.6,4.1,19,6c25.6,7.5,51.1,15.1,77,21.3
			c13,3.1,26,5.8,39.1,7.9c13.1,2.2,26.3,4.6,39.5,5.4c39.6,1.9,80.8-10.6,110-38c29.7-27.6,43.3-67.4,50.6-106.2
			c6.3-32.7,5.3-66.6-3.2-98.7c-9.2-37-23.9-72.8-54.7-97c-16.6-13.5-36.9-21.4-57.7-26c-12.9-2.9-26.1-4.9-39.2-7
			C722.9,213.8,696.2,212.1,669.8,216.5L669.8,216.5z M669.5,214.2c26.5-4.5,53.6-3.3,80.1,0.6c40.4,5.4,76.3,9.9,107.3,39.2
			c27.1,25.6,38.7,58.1,46.7,93.6c3.4,14.6,5.4,29.8,5.8,44.8c0.5,18.4-1,36.8-4.6,54.9c-5.3,26.1-12.4,52.3-26.1,75.4
			c-27.6,48.2-81.2,72.5-135.6,70.3c-13.4-0.7-26.6-3-39.7-5.1c-39.6-6.1-78.2-17.5-116.6-28.5c-6.4-1.9-12.8-3.8-19.2-5.9
			c-6.4-2.2-13-4.4-18.5-8.4c-44.7-30.9-66.2-88.7-61.6-141.9c1.2-13.4,4.9-26.6,9.6-39.2c4.6-12.5,9.5-25.1,15.5-37.1
			C543.4,264.1,600.4,224,669.5,214.2L669.5,214.2z"/>
	</g>
</g>
</svg>
