<?xml version="1.0" encoding="utf-8"?>
<!-- Generator: Adobe Illustrator 27.0.1, SVG Export Plug-In . SVG Version: 6.00 Build 0)  -->
<svg version="1.1" xmlns="http://www.w3.org/2000/svg" xmlns:xlink="http://www.w3.org/1999/xlink" x="0px" y="0px"
	 viewBox="0 0 1920 1080" style="enable-background:new 0 0 1920 1080;" xml:space="preserve">
<style type="text/css">
	.st0{fill:#E0BA31;stroke:#000000;stroke-width:6;stroke-miterlimit:10;}
	.st1{fill:none;stroke:#000000;stroke-width:7;stroke-miterlimit:10;}
	.st2{fill:#E0BA31;stroke:#000000;stroke-width:5;stroke-miterlimit:10;}
	.st3{fill:#E0BA31;stroke:#000000;stroke-width:7;stroke-miterlimit:10;}
	.st4{fill:none;stroke:#000000;stroke-width:4;stroke-miterlimit:10;}
	.st5{fill:none;stroke:#000000;stroke-width:5;stroke-miterlimit:10;}
</style>
<g id="Layer_1">
	
		<image style="overflow:visible;" width="1920" height="1080" xlink:href="../../squashconnects.png"  transform="matrix(1.0033 0 0 1.0065 -3 -4)">
	</image>
</g>
<g id="line_arms">
	<path class="st0" d="M1882.5,443.5c-61.3,3.5-67.5-5.4-127.8-16.3c-48.6-8.7-96.2-22-144.8-30.6c-83.6-14.8-169.3-15.4-254.3-12.3
		c-23.2,0.9-46.7,2-68.8,8.8s-43.1,19.7-54.5,39.2c-11.4,19.6-11.6,44.8-0.6,64.6c19,33.9,64.1,45.8,104.1,44.8
		c40-1,79.9-11.2,119.7-7c19.7,2.1,39.8,8.3,53.6,22c6.7,6.7,11.6,14.9,16,23.3c6.9,12.9,12.8,26.4,17.8,40.1
		c4.6,12.9,8.4,26.1,15.1,38.2c24,43.3,79.1,60.8,129.8,66.2"/>
	<path class="st1" d="M412,848.9c-49.3,6.8-100.4,9-151.2,10.9c-27.2,1-54.6,2-81.6,0.2c-14.6-1-28.9-2.7-43.4-4.2
		c-50.4-5-84.5-8.7-135.4-5.4"/>
	<path class="st1" d="M1459.7,848.9c54.1,2.6,110.2,3.4,166,4.2c29.8,0.4,59.9,0.8,89.6,0.1c16-0.4,31.7-1,47.6-1.6
		c55.4-1.9,63.7-4.3,119.6-3"/>
	<path class="st0" d="M1029.1,640.9c1.8,0.1,3.7,0,5.5-0.6c3.1-1.1,4.9-3.4,6.2-5.5c12.4-19.5,25.4-133.1-36.7-98.1
		C961.3,560.9,985.3,639.1,1029.1,640.9z"/>
	<path class="st0" d="M999.2,478.2c0.4,14,2.6,30.6,15.1,37c12.3,6.2,28-2.4,34.3-14.7c6.3-12.3,5.7-26.8,5-40.6
		c-0.2-4.1-0.4-8.2-0.6-12.3c-0.6-11.2-1.3-23.2-7.8-32.4C1008.5,362.7,998.7,459,999.2,478.2z"/>
	<path class="st0" d="M1041.7,747.1c1.4,0,2.8,0,4.2-0.6c2.3-1,3.5-3,4.3-4.9c7.8-17.2,7.9-116.6-36.7-85.2
		C982.6,678.2,1007.9,746.1,1041.7,747.1z"/>
	<path class="st0" d="M1054.3,841.2c1.3,0,2.8-0.1,4.1-0.7c2.3-0.9,3.5-2.8,4.5-4.5c8.5-15.4,12.9-102.3-32.4-72.8
		C999.1,783.6,1021,841.8,1054.3,841.2z"/>
	<path class="st0" d="M1029.1,640.9c1.8,0.1,3.7,0,5.5-0.6c3.1-1.1,4.9-3.4,6.2-5.5c12.4-19.5,25.4-133.1-36.7-98.1
		C961.3,560.9,985.3,639.1,1029.1,640.9z"/>
	<path class="st0" d="M999.2,478.2c0.4,14,2.6,30.6,15.1,37c12.3,6.2,28-2.4,34.3-14.7c6.3-12.3,5.7-26.8,5-40.6
		c-0.2-4.1-0.4-8.2-0.6-12.3c-0.6-11.2-1.3-23.2-7.8-32.4C1008.5,362.7,998.7,459,999.2,478.2z"/>
	<path class="st0" d="M1041.7,747.1c1.4,0,2.8,0,4.2-0.6c2.3-1,3.5-3,4.3-4.9c7.8-17.2,7.9-116.6-36.7-85.2
		C982.6,678.2,1007.9,746.1,1041.7,747.1z"/>
	<path class="st0" d="M1054.3,841.2c1.3,0,2.8-0.1,4.1-0.7c2.3-0.9,3.5-2.8,4.5-4.5c8.5-15.4,12.9-102.3-32.4-72.8
		C999.1,783.6,1021,841.8,1054.3,841.2z"/>
	<path class="st0" d="M1029.1,640.9c1.8,0.1,3.7,0,5.5-0.6c3.1-1.1,4.9-3.4,6.2-5.5c12.4-19.5,25.4-133.1-36.7-98.1
		C961.3,560.9,985.3,639.1,1029.1,640.9z"/>
	<path class="st0" d="M999.2,478.2c0.4,14,2.6,30.6,15.1,37c12.3,6.2,28-2.4,34.3-14.7c6.3-12.3,5.7-26.8,5-40.6
		c-0.2-4.1-0.4-8.2-0.6-12.3c-0.6-11.2-1.3-23.2-7.8-32.4C1008.5,362.7,998.7,459,999.2,478.2z"/>
	<path class="st0" d="M1041.7,747.1c1.4,0,2.8,0,4.2-0.6c2.3-1,3.5-3,4.3-4.9c7.8-17.2,7.9-116.6-36.7-85.2
		C982.6,678.2,1007.9,746.1,1041.7,747.1z"/>
	<path class="st0" d="M1054.3,841.2c1.3,0,2.8-0.1,4.1-0.7c2.3-0.9,3.5-2.8,4.5-4.5c8.5-15.4,12.9-102.3-32.4-72.8
		C999.1,783.6,1021,841.8,1054.3,841.2z"/>
	<path class="st0" d="M1029.1,640.9c1.8,0.1,3.7,0,5.5-0.6c3.1-1.1,4.9-3.4,6.2-5.5c12.4-19.5,25.4-133.1-36.7-98.1
		C961.3,560.9,985.3,639.1,1029.1,640.9z"/>
	<path class="st0" d="M999.2,478.2c0.4,14,2.6,30.6,15.1,37c12.3,6.2,28-2.4,34.3-14.7c6.3-12.3,5.7-26.8,5-40.6
		c-0.2-4.1-0.4-8.2-0.6-12.3c-0.6-11.2-1.3-23.2-7.8-32.4C1008.5,362.7,998.7,459,999.2,478.2z"/>
	<path class="st0" d="M1041.7,747.1c1.4,0,2.8,0,4.2-0.6c2.3-1,3.5-3,4.3-4.9c7.8-17.2,7.9-116.6-36.7-85.2
		C982.6,678.2,1007.9,746.1,1041.7,747.1z"/>
	<path class="st0" d="M1054.3,841.2c1.3,0,2.8-0.1,4.1-0.7c2.3-0.9,3.5-2.8,4.5-4.5c8.5-15.4,12.9-102.3-32.4-72.8
		C999.1,783.6,1021,841.8,1054.3,841.2z"/>
	<path class="st2" d="M-0.2,455.5c61.3,3.5,123-0.3,183.3-11.1c48.6-8.7,96.2-22,144.8-30.6c83.6-14.8,169.3-15.4,254.3-12.3
		c23.2,0.9,46.7,2,68.8,8.8s43.1,19.7,54.5,39.2c11.4,19.6,11.6,44.8,0.6,64.6c-19,33.9-64.1,45.8-104.1,44.8
		c-40-1-79.9-11.2-119.7-7c-19.7,2.1-39.8,8.3-53.6,22c-6.7,6.7-11.6,14.9-16,23.3c-6.9,12.9-12.8,26.4-17.8,40.1
		c-4.6,12.9-8.4,26.1-15.1,38.2c-24,43.3-79.1,60.8-129.8,66.2"/>
	<path class="st2" d="M811.7,625.4c-1.8,0.2-3.7,0.2-5.5-0.2c-3.2-0.8-5-2.8-6.5-4.6c-13.4-16.9-32.1-118.8,31.6-90.7
		C875.3,549.3,855.4,621.2,811.7,625.4z"/>
	<path class="st2" d="M833.2,476.8c0.3,12.7-1,27.8-13.2,34.2c-12,6.3-28.1-0.6-35-11.3c-6.9-10.8-7.1-23.9-7.1-36.4
		c0-3.7,0-7.4,0-11.1c0-10.2,0.2-21,6.1-29.7C818,373,832.8,459.4,833.2,476.8z"/>
	<path class="st2" d="M804.6,721.9c-1.4,0.1-2.8,0.1-4.2-0.3c-2.3-0.7-3.6-2.6-4.5-4.2c-8.7-15.1-13.8-104.8,32.3-79
		C860.1,656.4,838.3,719.1,804.6,721.9z"/>
	<path class="st2" d="M796.9,807.7c-1.3,0.1-2.8,0-4.2-0.4c-2.3-0.7-3.7-2.3-4.7-3.8c-9.2-13.4-18.1-91.6,28.7-67.6
		C849,752.5,830.2,806.3,796.9,807.7z"/>
	<path class="st2" d="M811.7,625.4c-1.8,0.2-3.7,0.2-5.5-0.2c-3.2-0.8-5-2.8-6.5-4.6c-13.4-16.9-32.1-118.8,31.6-90.7
		C875.3,549.3,855.4,621.2,811.7,625.4z"/>
	<path class="st2" d="M833.2,476.8c0.3,12.7-1,27.8-13.2,34.2c-12,6.3-28.1-0.6-35-11.3c-6.9-10.8-7.1-23.9-7.1-36.4
		c0-3.7,0-7.4,0-11.1c0-10.2,0.2-21,6.1-29.7C818,373,832.8,459.4,833.2,476.8z"/>
	<path class="st2" d="M804.6,721.9c-1.4,0.1-2.8,0.1-4.2-0.3c-2.3-0.7-3.6-2.6-4.5-4.2c-8.7-15.1-13.8-104.8,32.3-79
		C860.1,656.4,838.3,719.1,804.6,721.9z"/>
	<path class="st2" d="M796.9,807.7c-1.3,0.1-2.8,0-4.2-0.4c-2.3-0.7-3.7-2.3-4.7-3.8c-9.2-13.4-18.1-91.6,28.7-67.6
		C849,752.5,830.2,806.3,796.9,807.7z"/>
	<path class="st1" d="M410.3,162.1c-17.7,9-29.1,28.9-28.1,48.7"/>
	<path class="st1" d="M387.2,149.5c-6.6-1.5-12.5,4.1-16.4,9.6c-10.6,14.7-17.5,32.2-19.6,50.3"/>
	<path class="st1" d="M777.9,177c12.9,11.3,20,29,18.5,46.1"/>
	<path class="st1" d="M799.8,170.7c0.4-2.1,3.7-0.6,4.8,1.3c9.2,15.5,14.8,33.1,16.3,51.1"/>
	<path class="st1" d="M1082,158c-19.3,15-32.2,37.9-35.1,62.1"/>
	<path class="st1" d="M1061.2,142.6c-18.5,19.4-31.9,43.6-38.4,69.6"/>
	<path class="st1" d="M1412.8,148.2c16.7,3.6,29.4,17,40.1,30.4c13,16.2,24.7,33.4,35.1,51.4"/>
	<path class="st1" d="M1412.3,115c13.8-0.4,27.1,5.1,37.6,12.9c10.5,7.8,18.6,17.7,26.5,27.6c16.7,21,33.3,43.2,38.6,68.4"/>
	<path class="st1" d="M1865.5,439.1l7.2-37.8c0.6-3.1,5.1-2.9,5.5,0.2l15.1,145c9.1,87.3,7.3,175.4-5.3,262.2l-11.3,78.2
		c0,0.1-0.2,0.2-0.3,0l-10.9-37.1"/>
	<line class="st1" x1="1879.7" y1="399.5" x2="1958.3" y2="399.5"/>
	<line class="st1" x1="1876.3" y1="886.9" x2="1951.3" y2="887"/>
	<path class="st3" d="M0,414.5h26.3c8.8,0,17.5-1,26.1-2.9l1.9-0.4c8.9-2,17.4,4.8,17.4,13.9v452.8c0,14.8-12,26.8-26.8,26.8H-3"/>
	<path class="st4" d="M387,665v14.9c0,35.6-11.3,70-31.9,96.8L351,782"/>
	<path class="st5" d="M1553,647v15.7c0,37.4,14.8,73.6,41.7,101.7l5.3,5.6"/>
</g>
</svg>
