<?xml version="1.0" encoding="utf-8"?>
<!-- Generator: Adobe Illustrator 27.0.1, SVG Export Plug-In . SVG Version: 6.00 Build 0)  -->
<svg version="1.1" id="Layer_1" xmlns="http://www.w3.org/2000/svg" xmlns:xlink="http://www.w3.org/1999/xlink" x="0px" y="0px"
	 viewBox="0 0 595.3 841.9" style="enable-background:new 0 0 595.3 841.9;" xml:space="preserve">
<style type="text/css">
	.st0{fill:#EB6907;}
	.st1{fill:#E84E1B;stroke:#000000;stroke-miterlimit:10;}
	.st2{fill:#F8B133;}
	.st3{fill:#F29100;}
	.st4{fill:#FFFFFF;stroke:#000000;stroke-width:2;stroke-miterlimit:10;}
	.st5{fill:#EF8000;}
	.st6{fill:#009540;}
	.st7{fill:#1D1D1B;stroke:#000000;stroke-width:2;stroke-miterlimit:10;}
	.st8{fill:none;stroke:#000000;stroke-width:3;stroke-miterlimit:10;}
	.st9{fill:none;stroke:#000000;stroke-miterlimit:10;}
	.st10{fill:#EB6907;stroke:#EB6907;stroke-width:6;stroke-miterlimit:10;}
	.st11{fill:#EB6907;stroke:#EB6907;stroke-width:7;stroke-miterlimit:10;}
	.st12{fill:#EB6907;stroke:#EB6907;stroke-width:10;stroke-miterlimit:10;}
	.st13{fill:#1D1D1B;stroke:#000000;stroke-width:3;stroke-miterlimit:10;}
</style>
<g>
	<g>
		<path class="st0" d="M322.4,342.1c1.1,0,1.1-1.7,0-1.7C321.4,340.4,321.4,342.1,322.4,342.1L322.4,342.1z"/>
	</g>
</g>
<g>
	<g>
		<path class="st0" d="M322.6,374.2c0.4,0,1.1-0.1,1.3-0.5c0.2-0.4-0.1-0.5-0.5-0.5s-1.1,0.1-1.3,0.5
			C321.9,374,322.3,374.2,322.6,374.2L322.6,374.2z"/>
	</g>
</g>
<g>
	<ellipse class="st1" cx="301.2" cy="418.4" rx="199.2" ry="199.3"/>
	<path class="st1" d="M301.2,618.4C222.7,619,147,568.6,117.2,495c-54.7-131.9,43.4-276.4,184-276.6
		c141.2-0.6,240.5,144.6,185,277.1C456.2,569.2,380,619.5,301.2,618.4L301.2,618.4z M301.2,616.9c77.9,0.6,153.1-49.5,182.7-122.4
		c54.3-131-43.1-274.4-182.7-274.6c-140-0.8-238.9,143.8-183.7,275C147.4,568.1,223,617.9,301.2,616.9L301.2,616.9z"/>
</g>
<ellipse class="st2" cx="301.2" cy="418.4" rx="193.8" ry="193.7"/>
<path class="st3" d="M399.8,253.2l-56,80.2c-3.5,5-5.5,11.1-5.9,17.4l-0.1,1.2c-0.5,8.6,6.9,13.4,12.7,8.3l0,0
	c3.9-3.5,7.1-8.1,9.4-13.4L399.8,253.2z"/>
<path class="st3" d="M468.8,321.1L379.9,357c-5.5,2.2-10.5,6.3-14,11.3l-0.7,1c-4.9,7-1.2,15.2,6.4,14.1l0,0
	c5.1-0.7,10.2-2.8,14.9-6L468.8,321.1z"/>
<path class="st3" d="M476.2,338.8l-87.5,28.8c-5.4,1.7-10.8,5.1-15.3,9.2l-0.9,0.8c-6.2,5.7-5.1,12.5,1.8,11.7l0,0
	c4.6-0.6,9.7-2.2,14.6-4.8L476.2,338.8z"/>
<path class="st3" d="M493.3,399.7L402,386.8c-5.6-0.8-11.9-0.2-17.6,1.7l-1.1,0.4c-7.9,2.7-9.5,9.6-2.9,12l0,0
	c4.5,1.7,9.7,2.4,15.3,2.2L493.3,399.7z"/>
<path class="st3" d="M490.5,420.7L401,393.2c-5.5-1.7-11.8-1.9-17.7-0.6l-1.2,0.3c-8.1,1.7-10.6,9.3-4.1,13l0,0
	c4.3,2.5,9.5,4,15,4.7L490.5,420.7z"/>
<path class="st3" d="M485.1,440.3l-87.6-32c-5.4-1.9-11.6-2.6-17.6-1.7l-1.2,0.2c-8.2,1.2-11.1,8.2-4.9,12l0,0
	c4.1,2.6,9.2,4.5,14.6,5.3L485.1,440.3z"/>
<path class="st3" d="M479.8,485.3l-80.6-46.6c-5-2.8-11-4.7-17-5.1l-1.2-0.1c-8.3-0.6-12.3,5.4-6.9,10.2l0,0
	c3.6,3.2,8.3,5.9,13.5,7.8L479.8,485.3z"/>
<path class="st3" d="M473.7,495.3l-80.6-46.6c-5-2.8-11-4.7-17-5.1l-1.2-0.1c-8.3-0.6-12.3,5.4-6.9,10.2l0,0
	c3.6,3.2,8.3,5.9,13.5,7.8L473.7,495.3z"/>
<path class="st3" d="M469,505.8l-80.6-46.6c-5-2.8-11-4.7-17-5.1l-1.2-0.1c-8.3-0.6-12.3,5.4-6.9,10.2l0,0c3.6,3.2,8.3,5.9,13.5,7.8
	L469,505.8z"/>
<path class="st3" d="M463.7,515.6L383.1,469c-5-2.8-11-4.7-17-5.1l-1.2-0.1c-8.3-0.6-12.3,5.4-6.9,10.2l0,0
	c3.6,3.2,8.3,5.9,13.5,7.8L463.7,515.6z"/>
<path class="st3" d="M438.9,550.5l-77.2-52.4c-4.7-3.2-10.6-5.4-16.6-6.3l-1.2-0.2c-8.2-1.1-12.6,4.5-7.5,9.7l0,0
	c3.4,3.5,7.8,6.5,12.9,8.8L438.9,550.5z"/>
<path class="st3" d="M403.5,582.9l-21.1-93.3c-1.3-5.8-4.1-11.6-7.9-16.5l-0.7-0.9c-5.2-6.7-12.1-5.8-11.9,1.6l0,0
	c0.2,5,1.4,10.3,3.5,15.6L403.5,582.9z"/>
<path class="st3" d="M289.3,610l42.2-91c2.6-5.6,3.4-12.1,2.3-18.3l-0.2-1.2c-1.5-8.5-10.7-11.5-15.9-5.1l0,0
	c-3.5,4.3-5.9,9.6-7.1,15.3L289.3,610z"/>
<path class="st3" d="M330.4,610.1l-13.6-105c-0.8-6.4-3.9-12.2-8.7-16.2l-0.9-0.7c-6.6-5.4-17.3-0.4-18.5,8.7l0,0
	c-0.7,6.2,0,12.1,2.3,17.6L330.4,610.1z"/>
<path class="st3" d="M272.3,608.5l7.8-95.5c0.5-5.9-0.5-12.3-2.5-18.2l-0.5-1.1c-2.9-8-9.7-9.4-11.7-2.3l0,0
	c-1.4,4.8-1.8,10.3-1.4,16L272.3,608.5z"/>
<path class="st3" d="M188.1,570.9l78.7-50.1c4.8-3.1,9.3-7.6,12.6-13l0.6-1c4.5-7.3,1.5-13.7-5.2-11.2l0,0c-4.5,1.7-9,4.6-13.2,8.4
	L188.1,570.9z"/>
<path class="st3" d="M210.3,586.9l29-91c1.8-5.6,2.4-12.1,1.5-18.3l-0.2-1.2c-1.1-8.5-7.4-11.5-10.9-5.1l0,0
	c-2.4,4.3-4,9.6-4.9,15.3L210.3,586.9z"/>
<path class="st3" d="M181.5,565.8l61.6-71.3c3.8-4.4,6.8-10.1,8.5-16.2l0.4-1.2c2.3-8.3-2.4-13.6-8-9.2l0,0
	c-3.8,2.9-7.4,7.1-10.4,12L181.5,565.8z"/>
<path class="st3" d="M168.1,556l71.7-60.3c4.5-3.7,8.3-8.9,10.8-14.5l0.5-1.1c3.5-7.8-0.3-13.8-6.5-10.4l0,0
	c-4.2,2.3-8.4,5.8-12,10.1L168.1,556z"/>
<path class="st3" d="M115.4,466.5l91.7-10.6c5.6-0.6,11.6-2.8,16.6-6.2l1-0.6c7-4.6,7-11.8-0.1-12.4l0,0c-4.7-0.5-10,0.2-15.4,1.7
	L115.4,466.5z"/>
<path class="st3" d="M120.5,478.6l91.7-10.6c5.6-0.6,11.6-2.8,16.6-6.2l1-0.6c7-4.6,7-11.8-0.1-12.4l0,0c-4.7-0.5-10,0.2-15.4,1.7
	L120.5,478.6z"/>
<path class="st3" d="M120.5,488.8l91.7-10.6c5.6-0.6,11.6-2.8,16.6-6.2l1-0.6c7-4.6,7-11.8-0.1-12.4l0,0c-4.7-0.5-10,0.2-15.4,1.7
	L120.5,488.8z"/>
<path class="st3" d="M142.3,526.6l67-65.8c4.1-4,7.5-9.5,9.7-15.4l0.5-1.1c2.9-8-1.3-13.8-7.3-9.8l0,0c-4,2.6-7.9,6.4-11.3,11
	L142.3,526.6z"/>
<path class="st3" d="M128,504.9l88.2-28c5.5-1.7,10.8-5.1,15.3-9.3l0.8-0.8c6.1-5.9,4.7-13-2.3-12.2l0,0c-4.7,0.5-9.8,2.1-14.7,4.7
	L128,504.9z"/>
<path class="st3" d="M106.6,427.8l92,7.1c5.6,0.5,11.8-0.6,17.5-2.8l1.1-0.5c7.7-3.1,8.9-10.2,2.1-12.2l0,0
	c-4.5-1.4-9.9-1.7-15.4-1.2L106.6,427.8z"/>
<path class="st3" d="M111.1,385.4l80.8,46.3c5,2.8,11,4.6,17,5l1.2,0.1c8.3,0.5,12.2-5.4,6.8-10.2l0,0c-3.6-3.2-8.3-5.9-13.6-7.8
	L111.1,385.4z"/>
<path class="st3" d="M108.6,416.3l91-16c5.6-1,11.4-3.5,16.3-7.2l0.9-0.7c6.7-5,6.3-12.1-0.7-12.4l0,0c-4.7-0.2-10,0.7-15.3,2.7
	L108.6,416.3z"/>
<path class="st3" d="M124.2,344.8l87.6,30.2c5.4,1.8,11.6,2.4,17.6,1.7l1.2-0.2c8.2-1.1,11.1-7.7,4.9-11.3l0,0
	c-4.1-2.5-9.2-4.2-14.6-5.1L124.2,344.8z"/>
<path class="st3" d="M150.3,307.8l32.7,89.6c2,5.5,5.5,10.9,9.9,15.3l0.8,0.8c6,6,12.7,4.1,11.6-3.2l0,0c-0.7-4.9-2.6-10-5.5-15
	L150.3,307.8z"/>
<path class="st3" d="M198.6,259.3l16.7,94.2c1,5.8,3.5,11.8,7.1,16.8l0.7,1c4.9,7,11.8,6.3,11.9-1l0,0c0.1-5-0.9-10.4-2.8-15.8
	L198.6,259.3z"/>
<path class="st3" d="M171,285.3l71.5,60.6c4.4,3.8,10,6.6,15.9,8.1l1.2,0.3c8.1,2,13-3.1,8.5-8.7l0,0c-3-3.9-7.1-7.4-12-10.2
	L171,285.3z"/>
<path class="st3" d="M203.7,252l39.1,86.8c2.4,5.3,6.3,10.5,11,14.4l0.9,0.7c6.5,5.4,13,3,11.3-4l0,0c-1.1-4.8-3.4-9.8-6.5-14.5
	L203.7,252z"/>
<path class="st3" d="M305.3,224.5l-7,95.6c-0.5,5.9,0.5,12.3,2.7,18.2l0.5,1.1c3,8,9.8,9.3,11.7,2.2l0,0c1.3-4.8,1.7-10.3,1.2-16
	L305.3,224.5z"/>
<path class="st3" d="M324.2,224.5l-12.3,95c-0.7,5.9-0.2,12.3,1.7,18.3l0.4,1.2c2.5,8.2,9.3,9.8,11.6,2.9l0,0
	c1.5-4.7,2.3-10.1,2.1-15.9L324.2,224.5z"/>
<path class="st3" d="M254.9,231L293,348.4c2.4,7.3,6.4,14.8,11.3,21.2l0.9,1.3c6.7,8.9,14.1,8.6,12.6-0.5l0,0
	c-1-6.1-3.2-12.9-6.4-19.7L254.9,231z"/>
<path class="st3" d="M289.3,225.2l-52,139.5c-3.2,8.6-5.5,18.8-6.3,28.9l-0.2,1.9c-1.2,13.8,4.4,19.6,9.5,10l0,0
	c3.5-6.4,6.5-14.4,8.7-23.3L289.3,225.2z"/>
<path class="st4" d="M248.9,310.1c-19.7,5.1-41.1,10.6-60.5,29.2c-14.5,13.9-23.3,30.7-34.9,53.1c-6.2,11.9-9.3,17.8-11.1,24.8
	c-1.4,5.2-5.3,22.6,6.8,62.9c8.9,29.6,13.3,44.5,24.7,56.7c9.6,10.4,21.2,16.5,58.8,25.6c59.2,14.5,88.9,21.9,115.9,15.1
	c13.4-3.4,51.3-12.9,73.3-47.8c15.5-24.5,15.4-49.5,15.4-84.1c0-18.2-0.4-44.8-13.6-74.4c-4.5-9.9-9.6-21.4-20.5-32.7
	c-21.5-22.5-48.4-26.8-75.9-31c-20.1-3.1-35.2-3.1-41.9-2.8C267.6,305.5,254.1,308.7,248.9,310.1z"/>
<path class="st5" d="M238.1,317c-24,4-40.4,19.4-46.4,25.3c-1.8,1.7-9.5,9.2-17.1,21.2c-10.3,16.2-14,30.3-19.2,50.6
	c-5.5,21.6-8.3,32.5-7.5,45.9c1.2,19.6,7.8,33.9,11.9,42.4c3.9,8.2,11.6,23.7,27.4,37.2c8.9,7.6,18.7,13.1,34.4,18.8
	c18,6.5,50.6,15.5,99.4,13.5c39.3-1.7,58.9-2.4,77.1-17.5c16.5-13.6,22.9-31.2,29.1-47.9c14-38.2,9.6-71.9,7.4-88.2
	c-2.1-14.7-4.3-30.4-13.8-48.6c-4.6-8.9-17.3-32.3-43.2-46.1c-23.3-12.4-46.4-11.4-67.3-10.5c-15.2,0.6-24.1,3.1-50.2,3.5
	C244.8,316.8,244.4,315.9,238.1,317z"/>
<path class="st6" d="M290.3,250.1l-3.5,3c-0.1,0.1-0.2,0.3-0.1,0.5l5.5,15.9v0.1l0.5,14.2v13.4v0.1l-1.2,5.3
	c-0.1,0.3,0.1,0.6,0.4,0.6h3.9h2.8c0.2,0,0.4-0.2,0.4-0.5v-15.4l-0.4-10.8c0,0,0,0,0-0.1l-3-9.2l-0.9-3.4l-0.7-3.4l-1-3.4l-2-6.8
	C290.9,250,290.5,249.9,290.3,250.1z"/>
<path class="st6" d="M299.1,287.3l4-1.9c6.5-3.2,12.4-7.5,17.4-12.9l0,0c6.8-7.3,15.7-12.1,25.4-13.9l2.9-0.6
	c7.2-1.3,14.6-0.8,21.6,1.4l2.5,0.7c8.5,2.7,16.6,7.3,23.4,13.3l0,0c5.7,5.1,10.8,10.8,15.2,17.2l10.5,15.1l10.6,25l-26.4-15.6
	l-25.3-15.8l-26.4-10.4l-23.2-5.5l-7.9-0.3c-2.3-0.1-4.5,0.3-6.5,1l-16.5,5.9L299.1,287.3z"/>
<g>
	<path class="st7" d="M299.1,287.2c0,0,13.9-6.9,13.8-6.8l6.4-8.4c6.5-8.4,16.4-14,26.9-15.2c6.9-1.3,14.1-1.3,20.8,0.9l5.1,1.4
		c5.1,1.3,10.1,3.1,14.6,6.1c3,1.8,5.5,4.3,8.2,6.6c2.6,2.5,9.5,7.8,11.4,10.9c3.4,4.8,8.8,12.4,12.2,17.2c3,4.3,5.2,9.2,7.2,14.1
		l8.2,19.5l0.1,0.3l-0.2-0.2c-8.3-5.4-25.3-16.5-33.4-21.9c-12.1-6.2-25.5-12.7-37.7-18.5c0.1,0-13-6.1-12.6-6
		c0.1,0-14.8-3.4-14.6-3.3c0,0-14.8-1-14.6-1L305,288l-5.6,2.4h-0.1v-0.1L299.1,287.2L299.1,287.2z M299.2,287.3v3.1l-0.1-0.1
		l5.6-2.4l15.9-5.1l14.7,0.6l14.7,3.1c0.1,0,12.6,5.9,12.7,5.9c12.2,5.7,25.6,12.4,37.7,18.6c8.3,5.5,24.9,16.8,33.1,22.4l-0.1,0.1
		c-3.1-6.9-9.3-22.5-12.8-29c-1.4-2.7-4.1-6.3-5.8-8.7c-2.1-2.9-7.2-10.1-9.2-12.9c-1-1.5-2.1-2.8-3.5-3.9c-2.8-2.5-9.1-8-11.8-10.4
		c-5.4-4.6-11.8-7.4-18.6-9l-5.1-1.4c-5-1.5-10.2-2.1-15.4-1.6c-1.7,0.2-3.5,0.5-5.2,0.6c-6.9,0.7-13.6,3.4-19.2,7.5
		c-5.7,4-9.6,10.1-14.1,15.4C313.1,280.6,299.2,287.3,299.2,287.3L299.2,287.3z"/>
</g>
<path class="st8" d="M338.7,269.4c5.3-1.3,13.8-2.6,24-0.6c13,2.5,21.6,8.9,28,13.7c5.2,3.9,12.5,10.1,19.5,19.6"/>
<g>
	<path class="st9" d="M285.4,253.1l5.5-5.7l0.2-0.2c2.5,5.9,5.1,11.8,6.5,18c1.5,6.2,2.2,12.5,1.9,18.8v20.4v0.2h-0.2h-10.2h-0.2
		l0.1-0.3c1.4-4.1,3-8.2,3.3-12.6c0.5-8.7-0.7-17.6-2.8-26C288.3,262.1,286.5,256.8,285.4,253.1L285.4,253.1z M285.7,253.2
		c1.3,3.8,3.1,8.7,4.1,12.4c2.3,8.5,3.5,17.4,3.1,26.3c-0.3,4.5-1.7,8.7-3.8,12.7l-0.2-0.3h10.2l-0.2,0.2c0-9.2,0.5-25.5-1.5-34.4
		c-0.7-4.6-1.9-9.2-3.5-13.6c-1-2.9-2.2-5.9-3.3-8.8l0.3,0.1L285.7,253.2L285.7,253.2z"/>
</g>
<path class="st10" d="M381.2,332.9c-21.1-12-22.2-12.6-25.5-13.5c-4.8-1.4-11.2-1.4-23.9-1.6c-12.6-0.1-19-0.1-19.7,2.2
	c-0.8,2.8,5.5,7.3,16.9,15c26.3,17.7,39.7,26.7,51.3,30.6c7.9,2.8,29,10,32.8,3.6c3.3-5.4-6.9-19.7-17.1-27.8
	C394.6,340.5,394.1,340.2,381.2,332.9z"/>
<g>
	<g>
		<path class="st0" d="M358,560.7c2.2,0,2.2-3.5,0-3.5C355.8,557.3,355.8,560.7,358,560.7L358,560.7z"/>
	</g>
</g>
<g>
	<g>
		<path class="st0" d="M368.9,560.4c0.7,0,0.7-1.1,0-1.1C368.2,559.2,368.2,560.4,368.9,560.4L368.9,560.4z"/>
	</g>
</g>
<g>
	<g>
		<path class="st0" d="M384.8,555c0.7,0,0.7-1.1,0-1.1C384.1,553.9,384.1,555,384.8,555L384.8,555z"/>
	</g>
</g>
<g>
	<g>
		<path class="st0" d="M409.5,529.3c1.5,0,1.5-2.3,0-2.3S408,529.3,409.5,529.3L409.5,529.3z"/>
	</g>
</g>
<g>
	<g>
		<path class="st0" d="M424.7,469.9c0.7,0,0.7-1.1,0-1.1C423.9,468.8,423.9,469.9,424.7,469.9L424.7,469.9z"/>
	</g>
</g>
<g>
	<g>
		<path class="st0" d="M416,501.5c1.5,0,1.5-2.3,0-2.3C414.6,499.2,414.6,501.5,416,501.5L416,501.5z"/>
	</g>
</g>
<g>
	<g>
		<path class="st0" d="M383.4,512.9c0.7,0,0.7-1.1,0-1.1C382.6,511.7,382.6,512.9,383.4,512.9L383.4,512.9z"/>
	</g>
</g>
<g>
	<g>
		<path class="st0" d="M392.8,539.1c1.5,0,1.5-2.3,0-2.3C391.4,536.8,391.4,539.1,392.8,539.1L392.8,539.1z"/>
	</g>
</g>
<g>
	<g>
		<path class="st0" d="M399.3,513.5c1.5,0,1.5-2.3,0-2.3S397.8,513.5,399.3,513.5L399.3,513.5z"/>
	</g>
</g>
<g>
	<g>
		<path class="st0" d="M411.7,486.6c0.7,0,0.7-1.1,0-1.1C410.9,485.4,410.9,486.6,411.7,486.6L411.7,486.6z"/>
	</g>
</g>
<g>
	<g>
		<path class="st0" d="M397.1,494.7c1.5,0,1.5-2.3,0-2.3C395.6,492.4,395.6,494.7,397.1,494.7L397.1,494.7z"/>
	</g>
</g>
<g>
	<g>
		<path class="st0" d="M411.7,460.7c1.5,0,1.5-2.3,0-2.3C410.2,458.4,410.2,460.7,411.7,460.7L411.7,460.7z"/>
	</g>
</g>
<g>
	<g>
		<path class="st0" d="M426.8,453.2c1.5,0,1.5-2.3,0-2.3C425.4,450.9,425.4,453.2,426.8,453.2L426.8,453.2z"/>
	</g>
</g>
<g>
	<g>
		<path class="st0" d="M426.1,490.3c0.7,0,0.7-1.1,0-1.1C425.4,489.1,425.4,490.3,426.1,490.3L426.1,490.3z"/>
	</g>
</g>
<g>
	<g>
		<path class="st0" d="M417.5,516.6c0.7,0,0.7-1.1,0-1.1C416.7,515.5,416.7,516.6,417.5,516.6L417.5,516.6z"/>
	</g>
</g>
<g>
	<g>
		<path class="st0" d="M372,497.2c0.5,0,1.5-0.2,1.7-0.7c0.3-0.6-0.3-0.6-0.6-0.6c-0.5,0-1.5,0.2-1.7,0.7
			C371,497,371.5,497.2,372,497.2L372,497.2z"/>
	</g>
</g>
<g>
	<g>
		<path class="st0" d="M360.4,478.3c0.5,0,1.5-0.2,1.7-0.6c0.3-0.5-0.3-0.6-0.6-0.6c-0.5,0-1.5,0.2-1.7,0.6
			C359.4,478.2,359.9,478.3,360.4,478.3L360.4,478.3z"/>
	</g>
</g>
<g>
	<g>
		<path class="st0" d="M366.9,487.6c0.5,0,1.5-0.2,1.7-0.7c0.3-0.6-0.2-1-0.7-1s-1.5,0.2-1.7,0.7
			C365.9,487.2,366.4,487.6,366.9,487.6L366.9,487.6z"/>
	</g>
</g>
<g>
	<g>
		<path class="st0" d="M386.2,482.8c0.5,0,1.4-0.1,1.8-0.5c0.4-0.3,0.5-0.6-0.2-0.6c-0.5,0-1.4,0.1-1.8,0.5
			C385.6,482.4,385.6,482.8,386.2,482.8L386.2,482.8z"/>
	</g>
</g>
<g>
	<g>
		<path class="st0" d="M371.3,483c0.5,0,1.5-0.2,1.7-0.7c0.3-0.6-0.2-0.9-0.7-0.9s-1.5,0.2-1.7,0.7C370.3,482.7,370.7,483,371.3,483
			L371.3,483z"/>
	</g>
</g>
<g>
	<g>
		<path class="st0" d="M383.6,468.7c0.5,0,1.5-0.2,1.7-0.7c0.3-0.6-0.2-0.9-0.7-0.9s-1.5,0.2-1.7,0.7
			C382.6,468.4,383.1,468.7,383.6,468.7L383.6,468.7z"/>
	</g>
</g>
<g>
	<g>
		<path class="st0" d="M393.1,473.5c0,0.5,0.3,0.8,0.6,1c0.7,0.5,1.5,0.3,2.4,0.1c0.4-0.1,0.8-0.3,1.2-0.5c0.2-0.1,0.3-0.2,0.5-0.3
			c0.1-0.1,0.2-0.2,0.1-0.3c-0.1,0-0.2-0.1-0.3-0.1c-0.1,0-0.3,0-0.4,0c-0.4,0-0.7,0.1-1,0.3c-0.1,0-0.2,0.1-0.3,0.1
			c-0.2,0.1-0.3,0.2-0.5,0.3c0,0-0.1,0.1-0.2,0.1c0.1,0,0.1-0.1,0.2-0.1c0,0-0.1,0-0.1,0.1c-0.1,0.1,0.3-0.2,0.2-0.1
			c-0.2,0.1,0.4-0.2,0.2-0.1c-0.1,0,0.5-0.1,0.3-0.1c0.3-0.1,0.4-0.1,0.5-0.1l0,0c-0.1,0,0,0,0.2,0c-0.1,0-0.1,0-0.2,0
			c0.1,0,0.2,0,0.2,0c-0.1,0-0.2,0-0.3-0.1c0.1,0,0.1,0,0.2,0.1c-0.3-0.1-0.5-0.2-0.6-0.4l0.1,0.1c-0.2-0.2-0.3-0.5-0.3-0.6
			s-0.4-0.2-0.5-0.2c-0.3,0-0.6,0.1-1,0.2c-0.3,0.1-0.6,0.2-0.9,0.4C393.4,473.2,393.1,473.3,393.1,473.5L393.1,473.5z"/>
	</g>
</g>
<g>
	<g>
		<path class="st0" d="M397.3,471.9c-0.3,0-0.5,0-0.7,0s-0.3,0-0.5,0s-0.4,0.1-0.5,0.1c-0.2,0-0.4,0.1-0.5,0.2
			c-0.2,0.1-0.3,0.1-0.4,0.2s-0.1,0.1-0.2,0.2s-0.1,0.2-0.1,0.3l0.1,0.1c0.1,0.1,0.3,0.1,0.4,0.1c0.3,0,0.5,0,0.7,0s0.3,0,0.5,0
			s0.4-0.1,0.5-0.1s0.4-0.1,0.5-0.2c0.2-0.1,0.3-0.1,0.4-0.2s0.1-0.1,0.2-0.2s0.1-0.2,0.1-0.3l-0.1-0.1
			C397.6,471.9,397.4,471.9,397.3,471.9L397.3,471.9z"/>
	</g>
</g>
<g>
	<g>
		<path class="st0" d="M397.9,455.5c-0.3,0.2-0.5,0.4-0.5,0.6c-0.1,0.2-0.2,0.4-0.2,0.6s0,0.4,0,0.6s0.1,0.4,0.2,0.6
			s0.3,0.3,0.4,0.4c0.3,0.2,0.5,0.3,0.8,0.3c0.4,0,0.7,0,1-0.1c0.2-0.1,0.4-0.1,0.5-0.2c0.2-0.1,0.3-0.2,0.5-0.3
			c0.3-0.2,0.5-0.5,0.6-0.7c0.1-0.3,0.2-0.6,0.1-0.8c0-0.1-0.1-0.3-0.2-0.3c-0.1-0.1-0.2-0.2-0.4-0.2c-0.2-0.1-0.3-0.1-0.5-0.1
			s-0.4,0-0.5,0.1c-0.3,0.1-0.6,0.3-0.8,0.6c-0.1,0.1-0.1,0.2-0.2,0.3c-0.1,0.2-0.1,0.4-0.1,0.6c0,0,0,0,0,0.1c0-0.1,0-0.2,0-0.3
			c0,0.1,0,0.2,0,0.2c0-0.1,0.1-0.2,0.1-0.3c0,0.1-0.1,0.1-0.1,0.2c0.1-0.1,0.1-0.2,0.2-0.3c0,0.1-0.1,0.1-0.1,0.2
			c0.1-0.1,0.2-0.2,0.3-0.2c0,0-0.1,0.1-0.2,0.1c0.1-0.1,0.2-0.1,0.3-0.2l-0.1,0.1c0.1,0,0.3-0.1,0.4-0.1c0,0-0.1,0-0.2,0
			c0.1,0,0.3,0,0.4-0.1h-0.1c0.1,0,0.2,0,0.4,0h-0.1c0.1,0,0.2,0.1,0.3,0.1c-0.1,0-0.1,0-0.1-0.1c0.1,0,0.2,0.1,0.3,0.1
			c-0.1,0-0.1-0.1-0.2-0.1c0.1,0.1,0.1,0.1,0.2,0.2c-0.1-0.1-0.1-0.1-0.2-0.2c0,0.1,0.1,0.2,0.1,0.3c-0.1-0.1-0.1-0.2-0.1-0.4
			c0,0.1,0,0.2,0,0.3c0-0.1,0-0.2,0-0.3c0,0.1-0.1,0.2-0.1,0.3c0-0.1,0.1-0.1,0.1-0.2c-0.1,0.1-0.1,0.2-0.2,0.3l0.1-0.1
			c-0.1,0.1-0.2,0.2-0.3,0.2l0.1-0.1c0.1-0.1,0.3-0.2,0.3-0.4c0.1-0.1,0.2-0.3,0.2-0.4s0-0.3-0.1-0.4c0-0.1-0.1-0.2-0.3-0.3
			c-0.1,0-0.2-0.1-0.3-0.1c-0.2-0.1-0.5-0.1-0.6-0.1s-0.3,0-0.4,0.1C398.3,455.2,398.1,455.4,397.9,455.5L397.9,455.5z"/>
	</g>
</g>
<g>
	<g>
		<path class="st10" d="M412,436.9c-0.3-0.2-0.5-0.2-0.9-0.2c-0.2,0-0.5,0.1-0.7,0.1c-0.2,0.1-0.5,0.2-0.6,0.3
			c-0.2,0.1-0.4,0.2-0.5,0.4c-0.2,0.2-0.3,0.5-0.2,0.7c0,0.2,0.1,0.5,0.3,0.6c0.2,0.2,0.5,0.2,0.7,0.2c0.5,0,1.2-0.2,1.7-0.5
			c0.5-0.2,0.8-0.6,1-1.1c0.1-0.4,0.1-0.7,0.1-1.1c0-0.1,0-0.2-0.1-0.3c-0.1-0.1-0.2-0.1-0.3-0.2c-0.2-0.1-0.5-0.2-0.7-0.3
			c-0.8-0.2-1.7,0-2.5,0.3c-0.3,0.1-0.6,0.2-0.8,0.5c-0.1,0.1-0.1,0.2-0.2,0.3c0,0.1-0.1,0.3-0.1,0.5s0,0.5,0.1,0.6
			c0.1,0.5,0.4,0.8,0.6,1.2c0.1,0.1,0.2,0.1,0.3,0.1c0.1,0,0.3,0,0.4,0c0.4,0,0.7-0.1,1-0.3c0.1,0,0.2-0.1,0.3-0.1
			c0.2-0.1,0.3-0.2,0.5-0.3c0-0.1,0.1-0.1,0.1-0.2s0-0.2-0.1-0.2c-0.1-0.1-0.1-0.2-0.2-0.2l0.1,0.1c-0.4-0.5-0.5-1.1-0.5-1.7v0.1
			c0-0.1,0-0.2,0.1-0.3c-0.2,0.2-0.4,0.3-0.5,0.5c-0.3,0.1-0.4,0.1-0.2,0.1l0,0c0.2-0.1-0.4,0.1-0.2,0.1c0.2-0.1-0.4,0.1-0.2,0.1
			c0,0,0,0,0.1,0c-0.3,0-0.4,0-0.3,0h0.1c0.2,0-0.3,0-0.2,0s0.2,0,0.2,0c-0.1,0-0.2,0-0.3,0c0.2,0,0.4,0.1,0.5,0.1
			c-0.1,0-0.1,0-0.2-0.1c0.2,0.1,0.3,0.2,0.5,0.3l-0.1-0.1c0.1,0.3,0.1,0.6,0,0.9v-0.1c0,0.3-0.1,0.5-0.3,0.6c0-0.1,0.1-0.1,0.1-0.2
			c0,0.1-0.1,0.1-0.2,0.2c0.1-0.1,0.1-0.1,0.2-0.2c0,0-0.1,0-0.1,0.1c0.2-0.1,0.3-0.2,0.2-0.1c0.3-0.1,0.4-0.2,0.3-0.1
			c-0.1,0,0,0,0.3-0.1c0.2-0.1,0.4-0.1,0.6-0.1c-0.1,0,0.4,0,0.2,0c0.1,0,0.2,0,0.3,0h-0.1c0.1,0,0.1,0,0.2,0.1
			c-0.1,0-0.1-0.1-0.2-0.1l0.1,0.1c-0.1-0.2-0.2-0.4-0.2-0.6v0.1c0-0.1,0-0.2,0.1-0.2c0,0.1-0.1,0.1-0.1,0.2l0,0
			c-0.1,0.1-0.1,0.1-0.2,0.2l0,0c-0.2,0.1-0.4,0.2-0.5,0.3c-0.3,0.1-0.6,0.2-1,0.3c-0.3,0-0.4,0-0.3,0c-0.1,0-0.2,0-0.3,0h0.1
			c-0.1,0-0.1,0-0.2-0.1h0.1c0.2,0.1,0.5,0.1,0.6,0.1c0.4,0,0.7-0.1,1-0.3c0.1,0,0.2-0.1,0.3-0.1c0.2-0.1,0.3-0.2,0.5-0.3
			C412.1,437.2,412.2,437,412,436.9L412,436.9z"/>
	</g>
</g>
<g>
	<g>
		<path class="st0" d="M393.7,449.8c0.5,0,1.5-0.2,1.7-0.7c0.3-0.6-0.2-0.7-0.7-0.7s-1.5,0.2-1.7,0.7
			C392.7,449.5,393.3,449.8,393.7,449.8L393.7,449.8z"/>
	</g>
</g>
<g>
	<g>
		<path class="st0" d="M373.5,535.8c0.5,0,1.5-0.2,1.7-0.7c0.3-0.6-0.2-1-0.7-1s-1.5,0.2-1.7,0.7
			C372.5,535.4,372.9,535.8,373.5,535.8L373.5,535.8z"/>
	</g>
</g>
<g>
	<g>
		<path class="st0" d="M354.6,504c0.5,0,1.5-0.2,1.7-0.7c0.3-0.6-0.2-0.7-0.7-0.7s-1.5,0.2-1.7,0.7C353.6,503.8,354.1,504,354.6,504
			L354.6,504z"/>
	</g>
</g>
<g>
	<g>
		<path class="st0" d="M383.4,495.6c0.7,0,0.7-1.1,0-1.1C382.6,494.5,382.6,495.6,383.4,495.6L383.4,495.6z"/>
	</g>
</g>
<g>
	<g>
		<path class="st0" d="M382.6,545.1c1.5,0,1.5-2.3,0-2.3C381.2,542.8,381.2,545.1,382.6,545.1L382.6,545.1z"/>
	</g>
</g>
<g>
	<g>
		<path class="st0" d="M400.7,545.9c1.5,0,1.5-2.3,0-2.3C399.3,543.6,399.3,545.9,400.7,545.9L400.7,545.9z"/>
	</g>
</g>
<g>
	<g>
		<path class="st0" d="M366.9,519.7c0.5,0,1.5-0.2,1.7-0.6c0.3-0.5-0.3-0.6-0.6-0.6c-0.5,0-1.5,0.2-1.7,0.6
			C365.9,519.7,366.5,519.7,366.9,519.7L366.9,519.7z"/>
	</g>
</g>
<g>
	<g>
		<path class="st0" d="M359.5,529.2c0,0.3,0,0.5,0,0.7c0,0.1,0.1,0.2,0.2,0.2c0.1,0.1,0.2,0.1,0.3,0.1c0.2,0,0.3,0,0.5,0
			s0.4,0,0.5-0.1c0.1,0,0.3-0.1,0.4-0.1c0.2-0.1,0.4-0.2,0.5-0.3s0.1-0.1,0.2-0.2c0.1-0.1,0.1-0.2,0.1-0.3c0-0.3,0-0.5,0-0.7
			c0-0.1-0.1-0.2-0.2-0.2c-0.1-0.1-0.2-0.1-0.3-0.1c-0.2,0-0.3,0-0.5,0s-0.4,0-0.5,0.1c-0.1,0-0.3,0.1-0.4,0.1
			c-0.2,0.1-0.4,0.2-0.5,0.3s-0.1,0.1-0.2,0.2C359.6,529,359.5,529.1,359.5,529.2L359.5,529.2z"/>
	</g>
</g>
<g>
	<g>
		<path class="st11" d="M360.4,527.3c-0.5,0.6-1,1.4-1.5,2c-0.1,0.2-0.4,0.4-0.4,0.6s0,0.4,0,0.6c0.1,0.3,0.3,0.6,0.5,0.7
			c0.7,0.7,1.9,0.6,2.8,0.4c0.7-0.3,1.5-0.8,1.7-1.7c0.1-0.6,0-1.3-0.5-1.7s-1.3-0.2-1.7,0c-0.3,0.1-0.5,0.3-0.7,0.5
			c-0.1,0.2-0.2,0.4,0,0.6c0.1,0.1,0.2,0.2,0.3,0.3c0-0.1-0.1-0.1-0.1-0.2c0.1,0.2,0.2,0.5,0.2,0.7c0-0.1,0-0.1,0-0.2
			c0,0.3-0.1,0.5-0.2,0.6c0-0.1,0.1-0.1,0.1-0.2c0,0.1-0.1,0.1-0.1,0.2c0,0,0,0-0.1,0.1s0.1-0.1,0.1-0.1l-0.1,0.1
			c-0.1,0.1,0.3-0.2,0.1-0.1c-0.1,0-0.2,0.1,0.1,0c0.1-0.1,0.2-0.1,0.1-0.1s0,0,0.3-0.1c-0.2,0,0.3-0.1,0.2,0c-0.2,0,0.2,0,0.2,0
			c-0.2,0,0.3,0,0.2,0h-0.1c-0.1,0,0.3,0.1,0.1,0h-0.1c-0.1,0-0.2-0.1-0.2-0.1c0.1,0,0.1,0.1,0.2,0.1c-0.2-0.1-0.4-0.3-0.5-0.5
			c0,0.1,0.1,0.1,0.1,0.2c-0.1-0.2-0.2-0.4-0.2-0.6c0,0.1,0,0.1,0,0.2c0-0.1,0-0.1,0-0.2c0,0.1-0.1,0.1-0.1,0.2
			c0.5-0.7,1.2-1.6,1.7-2.3c0.1-0.2,0.2-0.4,0-0.6s-0.5-0.2-0.7-0.2c-0.4,0-0.7,0.1-1,0.2C360.8,526.9,360.5,527.1,360.4,527.3
			L360.4,527.3z"/>
	</g>
</g>
<g>
	<g>
		<path class="st0" d="M375.2,450.7c-0.1,0.1-0.1,0.2-0.1,0.2s0,0,0,0.1c0,0,0,0,0,0.1s0,0.2,0,0.2c0,0.1,0.1,0.1,0.1,0.2
			s0.1,0.1,0.1,0.2c0.1,0.1,0.3,0.2,0.4,0.2s0.3,0.1,0.4,0.1c0.3,0,0.5,0,0.7,0c0.3,0,0.5-0.1,0.8-0.2c0.1,0,0.3-0.1,0.4-0.2
			s0.2-0.1,0.3-0.2c0,0,0,0,0.1,0c0.1-0.1,0.2-0.1,0.2-0.2c0.1-0.1,0.1-0.2,0.1-0.2s0,0,0-0.1s0-0.3,0-0.4s0-0.2,0-0.2
			c0-0.1-0.1-0.2-0.2-0.3c0-0.1-0.1-0.1-0.2-0.2s-0.1-0.1-0.2-0.2s-0.3-0.2-0.4-0.2s-0.2-0.1-0.3-0.1c-0.2,0-0.4-0.1-0.5-0.1
			c-0.2,0-0.3,0-0.5,0s-0.4,0-0.5,0.1c-0.2,0-0.4,0.1-0.5,0.2c-0.2,0.1-0.3,0.1-0.4,0.2s-0.1,0.1-0.2,0.2s-0.1,0.2-0.1,0.3l0.1,0.1
			c0.1,0.1,0.3,0.1,0.4,0.2c0.1,0,0.2,0,0.3,0c-0.1,0-0.2,0-0.3-0.1c0.2,0,0.3,0.1,0.4,0.2c-0.1,0-0.1-0.1-0.2-0.1
			c0.2,0.1,0.3,0.2,0.5,0.4l-0.1-0.1c0.1,0.1,0.1,0.3,0.1,0.5c0-0.1,0-0.1,0-0.2c0,0.1,0,0.2-0.1,0.2c0-0.1,0.1-0.1,0.1-0.2
			c0,0,0,0.1-0.1,0.1c0.1-0.1,0.1-0.1,0.2-0.2c0,0,0,0-0.1,0c0.1-0.1,0.2-0.1,0.3-0.2c0,0,0,0-0.1,0c0.1-0.1,0.2-0.1,0.3-0.2
			c0,0,0,0-0.1,0c0.1,0,0.3-0.1,0.4-0.1c0,0,0,0-0.1,0c0.1,0,0.3-0.1,0.4-0.1c0,0,0,0-0.1,0c0.1,0,0.2,0,0.4,0h-0.1
			c0.1,0,0.2,0,0.3,0c-0.1,0-0.1,0-0.1,0c0.1,0,0.2,0,0.3,0.1c-0.1,0-0.1,0-0.2-0.1c0.1,0,0.1,0.1,0.2,0.1c-0.1,0-0.1-0.1-0.2-0.1
			l0.1,0.1c0,0,0-0.1,0-0.2c0,0.1,0,0.1,0,0.2c0-0.1,0-0.1,0-0.1c0,0.1-0.1,0.1-0.1,0.2l0,0c0.1-0.1,0.1-0.2,0.1-0.3s0-0.2-0.1-0.2
			c-0.1-0.1-0.2-0.1-0.3-0.1s-0.3-0.1-0.4,0c-0.4,0-0.7,0.1-1,0.2c-0.1,0.1-0.2,0.1-0.3,0.2C375.5,450.5,375.4,450.6,375.2,450.7
			L375.2,450.7z"/>
	</g>
</g>
<g>
	<g>
		<path class="st0" d="M427.1,424.6c-0.1,0.1-0.3,0.1-0.4,0.2c-0.2,0.2-0.3,0.2-0.5,0.5l0,0l0,0l0,0c0,0.1-0.1,0.2-0.1,0.2
			s0,0,0,0.1s0,0.2,0,0.3c0,0,0,0,0,0.1c0,0,0,0,0,0.1s0.1,0.2,0.1,0.2l0.1,0.1c0,0,0,0,0.1,0.1s0.2,0.1,0.3,0.2
			c0.1,0.1,0.3,0.1,0.4,0.2c0.1,0,0.3,0,0.4,0l0,0l0,0c0.1,0,0.3,0,0.4,0l0,0c0.1,0,0.3,0,0.4-0.1l0,0c0.1,0,0.3-0.1,0.4-0.1l0,0
			l0,0c0.1,0,0.3-0.1,0.3-0.2l0,0c0.1-0.1,0.2-0.1,0.3-0.2l0,0c0,0,0.1-0.2,0.2-0.2l0,0l0,0c0.1-0.1,0.1-0.2,0.1-0.3s0-0.2-0.1-0.3
			c0-0.1-0.1-0.2-0.2-0.2c-0.1-0.1-0.3-0.1-0.4-0.1c-0.2,0-0.4,0-0.5,0s-0.3,0.1-0.4,0.1c-0.2,0.1-0.5,0.2-0.6,0.3
			c-0.1,0.1-0.2,0.1-0.3,0.2c-0.1,0.1-0.2,0.3-0.3,0.4c0,0,0,0,0,0.1c0-0.1,0.1-0.1,0.1-0.2v0.1c0.1-0.1,0.1-0.1,0.2-0.2l0,0
			c0.1-0.1,0.2-0.1,0.3-0.2l0,0c0.1-0.1,0.2-0.1,0.3-0.2l0,0c0.1,0,0.3-0.1,0.4-0.1l0,0c0.1,0,0.3-0.1,0.4-0.1l0,0
			c0.1,0,0.2,0,0.4,0c0,0,0,0-0.1,0c0.1,0,0.2,0,0.3,0H429c0.1,0,0.2,0.1,0.3,0.1c-0.1,0-0.1,0-0.2-0.1c0.1,0,0.1,0.1,0.2,0.1
			c-0.1-0.1-0.2-0.1-0.2-0.2c0,0.1,0.1,0.1,0.1,0.2c0-0.1-0.1-0.1-0.1-0.2c0,0.1,0,0.1,0,0.2v-0.1c0,0.1-0.1,0.1-0.1,0.2
			c0,0,0,0,0-0.1c-0.1,0.1-0.1,0.1-0.2,0.2l0,0c-0.1,0.1-0.2,0.1-0.3,0.2c0,0,0,0,0.1,0c-0.1,0.1-0.2,0.1-0.3,0.2l0,0
			c0.2-0.1,0.3-0.2,0.5-0.3c0.1-0.1,0.2-0.2,0.3-0.3c0.1-0.1,0.1-0.2,0.1-0.3s0-0.2-0.1-0.3c-0.1,0-0.1-0.1-0.2-0.1
			c-0.2-0.1-0.4-0.1-0.5-0.1s-0.2,0-0.4,0C427.6,424.4,427.4,424.5,427.1,424.6L427.1,424.6z"/>
	</g>
</g>
<g>
	<g>
		<path class="st0" d="M427.1,425.8c-0.3,0.3-0.5,0.5-0.7,0.7c-0.1,0.1-0.1,0.1-0.1,0.2s0,0.1,0.1,0.2s0.2,0.1,0.3,0.1s0.3,0,0.4,0
			s0.2,0,0.4,0c0.3,0,0.5-0.1,0.7-0.2c0.3-0.1,0.5-0.2,0.7-0.5c0.3-0.3,0.5-0.5,0.7-0.7c0.1-0.1,0.1-0.1,0.1-0.2s0-0.1-0.1-0.2
			s-0.2-0.1-0.3-0.1s-0.3,0-0.4,0s-0.2,0-0.4,0c-0.3,0-0.5,0.1-0.7,0.2S427.3,425.5,427.1,425.8L427.1,425.8z"/>
	</g>
</g>
<g>
	<g>
		<path class="st0" d="M413.8,449.6c1.6-0.2,2.9-2,2.3-3.6c0-0.1-0.2-0.1-0.3-0.1c-0.7,0.2-1.3,0.6-1.5,1.3
			c-0.3,0.6-0.3,1.3,0.2,1.8c0.1,0.2,0.7,0,0.6-0.3c-0.3-0.5-0.4-1-0.2-1.5c0.1-0.2,0.2-0.5,0.4-0.6c0.1-0.1,0.2-0.2,0.3-0.2
			c0.1,0,0.1,0,0.1-0.1l0,0h0.1c-0.1,0-0.2-0.1-0.3-0.1c0.3,0.6,0.2,1.4-0.2,1.9c-0.2,0.3-0.4,0.6-0.6,0.7c-0.3,0.2-0.5,0.3-0.7,0.3
			c-0.1,0-0.4,0.1-0.4,0.3C413.5,449.6,413.7,449.7,413.8,449.6L413.8,449.6z"/>
	</g>
</g>
<g>
	<g>
		<path class="st0" d="M417.9,474c0-0.1,0.1-0.2,0.1-0.3c0,0,0,0,0-0.1c0-0.2,0-0.4-0.2-0.6l-0.2-0.2l0,0l-0.3-0.1l0,0
			c-0.1,0-0.2-0.1-0.3-0.1l0,0h-0.4l0,0c-0.1,0-0.3,0.1-0.4,0.1l0,0c-0.1,0-0.3,0.1-0.4,0.1l0,0c-0.1,0-0.1,0.1-0.2,0.1
			c-0.1,0.1-0.2,0.1-0.3,0.2c-0.1,0.1-0.2,0.2-0.3,0.3c-0.1,0.1-0.2,0.2-0.2,0.4c-0.1,0.1-0.1,0.3-0.1,0.4l0,0l0,0c0,0,0,0.2,0,0.1
			c0,0,0,0.1,0,0.2s0.1,0.2,0.2,0.3l0.1,0.1l0.1,0.1l0,0c0.1,0.1,0.2,0.1,0.3,0.2c0.2,0.1,0.3,0.1,0.5,0.1c0.3,0,0.5,0,0.8-0.1
			c0.1,0,0.2-0.1,0.2-0.1c0.1,0,0.2-0.1,0.2-0.1l0,0c0.1-0.1,0.2-0.1,0.4-0.2c0.2-0.1,0.3-0.2,0.4-0.4c0.1-0.1,0.2-0.3,0.3-0.5
			c0.1-0.1,0.1-0.2,0.1-0.2c0-0.1,0.1-0.2,0.1-0.3c0.1-0.2,0.1-0.4,0.1-0.5s0-0.3-0.1-0.4c0-0.1-0.1-0.2-0.3-0.3
			c-0.1-0.1-0.3-0.2-0.4-0.2c-0.2-0.1-0.4-0.1-0.5,0c-0.1,0-0.3,0-0.4,0.1c-0.3,0.1-0.5,0.2-0.6,0.3c-0.1,0.1-0.2,0.2-0.3,0.2
			c-0.1,0.2-0.2,0.3-0.3,0.5c0,0.1,0,0.2-0.1,0.3c0-0.1,0.1-0.2,0.1-0.3c-0.1,0.2-0.1,0.4-0.2,0.5c0.1-0.1,0.1-0.2,0.2-0.3
			c-0.1,0.1-0.1,0.2-0.2,0.2c0.1-0.1,0.2-0.2,0.3-0.2l-0.1,0.1c0.1-0.1,0.2-0.1,0.3-0.2c0,0-0.1,0-0.1,0.1c0.1,0,0.3-0.1,0.4-0.1
			h-0.1c0.1,0,0.3,0,0.4-0.1h-0.1c0.1,0,0.2,0,0.4,0h-0.1c0.1,0,0.2,0.1,0.3,0.1l0,0c0.1,0,0.2,0.1,0.3,0.1c0,0,0,0-0.1,0
			c0.1,0.1,0.1,0.1,0.2,0.2c0,0,0,0,0-0.1c0,0.1,0.1,0.2,0.1,0.2s0,0,0-0.1c0,0.1,0,0.2,0,0.3v-0.1c0,0.1-0.1,0.2-0.1,0.3
			c0,0,0-0.1,0.1-0.1c-0.1,0.1-0.1,0.2-0.2,0.3l0.1-0.1c-0.1,0.1-0.2,0.2-0.3,0.2l0.1-0.1c-0.1,0.1-0.2,0.1-0.3,0.2c0,0,0,0,0.1,0
			c-0.1,0-0.3,0.1-0.4,0.1l0,0c-0.1,0-0.3,0-0.4,0.1l0,0c-0.1,0-0.2,0-0.4,0l0,0c-0.1,0-0.2-0.1-0.3-0.1l0,0c-0.1,0-0.2-0.1-0.3-0.1
			l0,0c-0.1-0.1-0.1-0.1-0.2-0.2l0,0c0-0.1-0.1-0.2-0.1-0.2l0,0c0-0.1,0-0.2,0-0.3v0.1c0-0.1,0.1-0.2,0.1-0.3l0,0
			c-0.1,0.1-0.1,0.3-0.1,0.4s0,0.3,0.1,0.4s0.2,0.2,0.3,0.3s0.3,0.1,0.5,0.1c0.1,0,0.2,0,0.4,0c0.3,0,0.5-0.1,0.7-0.2
			c0.1-0.1,0.2-0.1,0.3-0.2C417.7,474.3,417.8,474.2,417.9,474L417.9,474z"/>
	</g>
</g>
<g>
	<g>
		<path class="st12" d="M404.7,497.3c0.5,0.5,1,0.8,1.5,1.3c0.4,0.3,0.9,0.3,1.3,0.2c0.5-0.1,0.8-0.4,1-0.7c0.5-0.9,0.9-1.9,1.5-2.8
			c0.1-0.2,0.1-0.6-0.1-0.7c-0.2-0.2-0.5-0.4-0.7-0.4c-0.6-0.1-1.5,0.2-1.7,0.8c-0.5,0.9-0.9,1.9-1.5,2.8c0.7-0.2,1.5-0.4,2.3-0.6
			c-0.5-0.5-1-0.8-1.5-1.3c-0.2-0.2-0.6-0.2-0.9-0.2c-0.4,0-0.7,0.2-1,0.4c-0.2,0.2-0.5,0.4-0.5,0.7
			C404.5,496.9,404.6,497.1,404.7,497.3L404.7,497.3z"/>
	</g>
</g>
<g>
	<path class="st13" d="M268.7,306.6c-61.8,9.4-101.6,49.5-120.9,108.3c-14,35.9-6.9,78.3,15.4,109.2c5.6,7.7,12.4,14.6,20.2,20
		c3.7,2.9,8.3,4.5,12.7,6.1c13.6,4.6,27.3,8.5,41,12.5c27.4,7.9,55.4,14.4,83.9,17c27.1,1.2,55.4-7.3,75.9-25.7
		c19-16.7,29.6-41,35.4-65.4c8.8-34.2,7.8-65.8-2.6-99.5c-5.3-18.3-13.6-36.1-26.7-49.9c-13.3-14.2-30.5-22.5-49.2-26.6
		C325.6,307.2,297,301.9,268.7,306.6L268.7,306.6z M268.5,305.8c28.5-5,57.2,0.2,85.3,5.5c41.5,8.1,66.5,37.3,77.1,77.5
		c3.2,11.6,5.9,23.4,7.1,35.5c1.5,16.8,0.8,33.8-2.5,50.4c-7.3,39.1-22.2,75.1-59.1,94c-21.4,10.8-46.2,14.2-69.7,10.2
		c-23.6-3.3-46.9-8.5-69.9-15.2c-16-4.8-32.3-8.7-47.8-14.9c-10.8-5.2-19.5-14.3-26.7-23.8c-19.7-27.2-27.8-63.5-20-96.4
		c3.8-14,9-27.5,15.2-40.5C178.8,342.6,219.6,312.6,268.5,305.8L268.5,305.8z"/>
</g>
</svg>
